<svg id="Layer_1" data-name="Layer 1" xmlns="http://www.w3.org/2000/svg" xmlns:xlink="http://www.w3.org/1999/xlink" viewBox="0 0 500 500"><defs><style>.cls-1{mask:url(#mask);filter:url(#luminosity-noclip-26);}.cls-10,.cls-12,.cls-14,.cls-16,.cls-18,.cls-2,.cls-20,.cls-22,.cls-24,.cls-26,.cls-28,.cls-30,.cls-32,.cls-34,.cls-36,.cls-38,.cls-4,.cls-40,.cls-42,.cls-44,.cls-46,.cls-48,.cls-50,.cls-6,.cls-8{mix-blend-mode:multiply;}.cls-2{fill:url(#_ÂÁ_Ï_ÌÌ_È_ËÂÌÚ_361);}.cls-11,.cls-3{mask:url(#mask-2);}.cls-3{filter:url(#luminosity-noclip-31);}.cls-4{fill:url(#_ÂÁ_Ï_ÌÌ_È_ËÂÌÚ_337);}.cls-15,.cls-5{mask:url(#mask-3);}.cls-5{filter:url(#luminosity-noclip-32);}.cls-6{fill:url(#_ÂÁ_Ï_ÌÌ_È_ËÂÌÚ_337-2);}.cls-7{mask:url(#mask-4);filter:url(#luminosity-noclip-33);}.cls-8{fill:url(#_ÂÁ_Ï_ÌÌ_È_ËÂÌÚ_337-3);}.cls-9{mask:url(#mask-5);filter:url(#luminosity-noclip-34);}.cls-10{fill:url(#_ÂÁ_Ï_ÌÌ_È_ËÂÌÚ_337-4);}.cls-11{filter:url(#luminosity-noclip-35);}.cls-12{fill:url(#_ÂÁ_Ï_ÌÌ_È_ËÂÌÚ_337-5);}.cls-13,.cls-35{mask:url(#mask-7);}.cls-13{filter:url(#luminosity-noclip-27);}.cls-14{fill:url(#_ÂÁ_Ï_ÌÌ_È_ËÂÌÚ_337-6);}.cls-15{filter:url(#luminosity-noclip-36);}.cls-16{fill:url(#_ÂÁ_Ï_ÌÌ_È_ËÂÌÚ_337-7);}.cls-17,.cls-47{mask:url(#mask-9);}.cls-17{filter:url(#luminosity-noclip-37);}.cls-18{fill:url(#_ÂÁ_Ï_ÌÌ_È_ËÂÌÚ_337-8);}.cls-19,.cls-49{mask:url(#mask-10);}.cls-19{filter:url(#luminosity-noclip-38);}.cls-20{fill:url(#_ÂÁ_Ï_ÌÌ_È_ËÂÌÚ_337-9);}.cls-21,.cls-43{mask:url(#mask-11);}.cls-21{filter:url(#luminosity-noclip-39);}.cls-22{fill:url(#_ÂÁ_Ï_ÌÌ_È_ËÂÌÚ_337-10);}.cls-23,.cls-45{mask:url(#mask-12);}.cls-23{filter:url(#luminosity-noclip-40);}.cls-24{fill:url(#_ÂÁ_Ï_ÌÌ_È_ËÂÌÚ_337-11);}.cls-25,.cls-39{mask:url(#mask-13);}.cls-25{filter:url(#luminosity-noclip-41);}.cls-26{fill:url(#_ÂÁ_Ï_ÌÌ_È_ËÂÌÚ_337-12);}.cls-27,.cls-41{mask:url(#mask-14);}.cls-27{filter:url(#luminosity-noclip-42);}.cls-28{fill:url(#_ÂÁ_Ï_ÌÌ_È_ËÂÌÚ_337-13);}.cls-29,.cls-33{mask:url(#mask-15);}.cls-29{filter:url(#luminosity-noclip-43);}.cls-30{fill:url(#_ÂÁ_Ï_ÌÌ_È_ËÂÌÚ_337-14);}.cls-31,.cls-37{mask:url(#mask-16);}.cls-31{filter:url(#luminosity-noclip-44);}.cls-32{fill:url(#_ÂÁ_Ï_ÌÌ_È_ËÂÌÚ_337-15);}.cls-33{filter:url(#luminosity-noclip-45);}.cls-34{fill:url(#_ÂÁ_Ï_ÌÌ_È_ËÂÌÚ_337-16);}.cls-35{filter:url(#luminosity-noclip-28);}.cls-36{fill:url(#_ÂÁ_Ï_ÌÌ_È_ËÂÌÚ_337-17);}.cls-37{filter:url(#luminosity-noclip-46);}.cls-38{fill:url(#_ÂÁ_Ï_ÌÌ_È_ËÂÌÚ_337-18);}.cls-39{filter:url(#luminosity-noclip-47);}.cls-40{fill:url(#_ÂÁ_Ï_ÌÌ_È_ËÂÌÚ_337-19);}.cls-41{filter:url(#luminosity-noclip-48);}.cls-42{fill:url(#_ÂÁ_Ï_ÌÌ_È_ËÂÌÚ_337-20);}.cls-43{filter:url(#luminosity-noclip-49);}.cls-44{fill:url(#_ÂÁ_Ï_ÌÌ_È_ËÂÌÚ_337-21);}.cls-45{filter:url(#luminosity-noclip-50);}.cls-46{fill:url(#_ÂÁ_Ï_ÌÌ_È_ËÂÌÚ_337-22);}.cls-47{filter:url(#luminosity-noclip-29);}.cls-48{fill:url(#_ÂÁ_Ï_ÌÌ_È_ËÂÌÚ_337-23);}.cls-49{filter:url(#luminosity-noclip-30);}.cls-50{fill:url(#_ÂÁ_Ï_ÌÌ_È_ËÂÌÚ_337-24);}.cls-51{fill:#1c2e35;}.cls-52{fill:#1d1d1b;}.cls-53{fill:#72180d;}.cls-128,.cls-134,.cls-141,.cls-152,.cls-163,.cls-174,.cls-54{fill:#fff;}.cls-55{fill:#373636;}.cls-56{fill:#ca6f53;}.cls-57{fill:#e30613;}.cls-58{mask:url(#mask-26);}.cls-59{fill:url(#_ÂÁ_Ï_ÌÌ_È_ËÂÌÚ_335);}.cls-60{mask:url(#mask-27);}.cls-61{fill:url(#_ÂÁ_Ï_ÌÌ_È_ËÂÌÚ_129);}.cls-62{mask:url(#mask-28);}.cls-63{fill:url(#_ÂÁ_Ï_ÌÌ_È_ËÂÌÚ_129-2);}.cls-64{mask:url(#mask-29);}.cls-65{fill:url(#_ÂÁ_Ï_ÌÌ_È_ËÂÌÚ_129-3);}.cls-66{mask:url(#mask-30);}.cls-67{fill:url(#_ÂÁ_Ï_ÌÌ_È_ËÂÌÚ_129-4);}.cls-68{mask:url(#mask-31);}.cls-69{fill:url(#_ÂÁ_Ï_ÌÌ_È_ËÂÌÚ_129-5);}.cls-70{mask:url(#mask-32);}.cls-71{fill:url(#_ÂÁ_Ï_ÌÌ_È_ËÂÌÚ_129-6);}.cls-72{mask:url(#mask-33);}.cls-73{fill:url(#_ÂÁ_Ï_ÌÌ_È_ËÂÌÚ_129-7);}.cls-74{mask:url(#mask-34);}.cls-75{fill:url(#_ÂÁ_Ï_ÌÌ_È_ËÂÌÚ_129-8);}.cls-76{mask:url(#mask-35);}.cls-77{fill:url(#_ÂÁ_Ï_ÌÌ_È_ËÂÌÚ_129-9);}.cls-78{mask:url(#mask-36);}.cls-79{fill:url(#_ÂÁ_Ï_ÌÌ_È_ËÂÌÚ_129-10);}.cls-80{mask:url(#mask-37);}.cls-81{fill:url(#_ÂÁ_Ï_ÌÌ_È_ËÂÌÚ_129-11);}.cls-82{mask:url(#mask-38);}.cls-83{fill:url(#_ÂÁ_Ï_ÌÌ_È_ËÂÌÚ_129-12);}.cls-84{mask:url(#mask-39);}.cls-85{fill:url(#_ÂÁ_Ï_ÌÌ_È_ËÂÌÚ_129-13);}.cls-86{mask:url(#mask-40);}.cls-87{fill:url(#_ÂÁ_Ï_ÌÌ_È_ËÂÌÚ_129-14);}.cls-88{mask:url(#mask-41);}.cls-89{fill:url(#_ÂÁ_Ï_ÌÌ_È_ËÂÌÚ_129-15);}.cls-90{mask:url(#mask-42);}.cls-91{fill:url(#_ÂÁ_Ï_ÌÌ_È_ËÂÌÚ_129-16);}.cls-92{mask:url(#mask-43);}.cls-93{fill:url(#_ÂÁ_Ï_ÌÌ_È_ËÂÌÚ_129-17);}.cls-94{mask:url(#mask-44);}.cls-95{fill:url(#_ÂÁ_Ï_ÌÌ_È_ËÂÌÚ_129-18);}.cls-96{mask:url(#mask-45);}.cls-97{fill:url(#_ÂÁ_Ï_ÌÌ_È_ËÂÌÚ_129-19);}.cls-98{mask:url(#mask-46);}.cls-99{fill:url(#_ÂÁ_Ï_ÌÌ_È_ËÂÌÚ_129-20);}.cls-100{mask:url(#mask-47);}.cls-101{fill:url(#_ÂÁ_Ï_ÌÌ_È_ËÂÌÚ_129-21);}.cls-102{mask:url(#mask-48);}.cls-103{fill:url(#_ÂÁ_Ï_ÌÌ_È_ËÂÌÚ_129-22);}.cls-104{mask:url(#mask-49);}.cls-105{fill:url(#_ÂÁ_Ï_ÌÌ_È_ËÂÌÚ_129-23);}.cls-106{mask:url(#mask-50);}.cls-107{fill:url(#_ÂÁ_Ï_ÌÌ_È_ËÂÌÚ_129-24);}.cls-108{fill:#fc0;}.cls-109{fill:#686867;}.cls-110{fill:#ed0000;}.cls-111{font-size:23.08px;letter-spacing:-0.1em;}.cls-111,.cls-112,.cls-116,.cls-117,.cls-136,.cls-147,.cls-157,.cls-179{fill:#ffed00;}.cls-111,.cls-112,.cls-116,.cls-117,.cls-119,.cls-120,.cls-123,.cls-124,.cls-126,.cls-127,.cls-128,.cls-134,.cls-136,.cls-141,.cls-147,.cls-152,.cls-157,.cls-163,.cls-169,.cls-174,.cls-179{font-family:Gotham-Bold, Gotham Bold;font-weight:700;}.cls-112{font-size:5.26px;letter-spacing:0.24em;}.cls-113{letter-spacing:0.21em;}.cls-114{letter-spacing:0.24em;}.cls-115,.cls-126,.cls-127{fill:#f9b35e;}.cls-116{font-size:22.62px;letter-spacing:-0.1em;}.cls-117{font-size:5.15px;letter-spacing:0.24em;}.cls-118{letter-spacing:0.21em;}.cls-119{font-size:24.03px;letter-spacing:-0.1em;}.cls-119,.cls-120,.cls-123,.cls-124{fill:#e70c00;}.cls-120{font-size:5.47px;letter-spacing:0.24em;}.cls-121{letter-spacing:0.21em;}.cls-122{letter-spacing:0.24em;}.cls-123{font-size:21.46px;letter-spacing:-0.1em;}.cls-124{font-size:4.89px;letter-spacing:0.24em;}.cls-125{letter-spacing:0.21em;}.cls-126{font-size:20.43px;letter-spacing:-0.1em;}.cls-127{font-size:11.96px;letter-spacing:-0.1em;}.cls-128{font-size:7.83px;letter-spacing:0.03em;}.cls-129{letter-spacing:-0.08em;}.cls-130{letter-spacing:-0.02em;}.cls-131{letter-spacing:-0.06em;}.cls-132{letter-spacing:-0.02em;}.cls-133{letter-spacing:-0.02em;}.cls-134{font-size:13.9px;letter-spacing:-0.04em;}.cls-135{letter-spacing:-0.02em;}.cls-136{font-size:8.51px;letter-spacing:0.03em;}.cls-137{letter-spacing:-0.08em;}.cls-138{letter-spacing:-0.02em;}.cls-139{letter-spacing:-0.06em;}.cls-140{letter-spacing:-0.01em;}.cls-141{font-size:10.43px;}.cls-141,.cls-146{letter-spacing:-0.02em;}.cls-142{letter-spacing:0em;}.cls-143{letter-spacing:-0.06em;}.cls-144{letter-spacing:-0.02em;}.cls-145{letter-spacing:-0.01em;}.cls-147{font-size:6.7px;letter-spacing:0.03em;}.cls-148{letter-spacing:-0.08em;}.cls-149{letter-spacing:-0.02em;}.cls-150{letter-spacing:-0.06em;}.cls-151{letter-spacing:-0.02em;}.cls-152{font-size:11.02px;letter-spacing:-0.02em;}.cls-153{letter-spacing:0em;}.cls-154{letter-spacing:-0.06em;}.cls-155{letter-spacing:-0.02em;}.cls-156{letter-spacing:-0.02em;}.cls-157{font-size:7.09px;letter-spacing:0.03em;}.cls-158{letter-spacing:-0.08em;}.cls-159{letter-spacing:-0.02em;}.cls-160{letter-spacing:-0.06em;}.cls-161{letter-spacing:-0.02em;}.cls-162{letter-spacing:-0.02em;}.cls-163{font-size:13.12px;}.cls-163,.cls-166{letter-spacing:-0.02em;}.cls-164{letter-spacing:-0.08em;}.cls-165{letter-spacing:-0.1em;}.cls-167{letter-spacing:-0.01em;}.cls-168{letter-spacing:-0.02em;}.cls-169{font-size:13.12px;fill:#d02417;}.cls-169,.cls-172{letter-spacing:-0.02em;}.cls-170{letter-spacing:-0.08em;}.cls-171{letter-spacing:-0.1em;}.cls-173{letter-spacing:-0.01em;}.cls-174{font-size:9.94px;letter-spacing:-0.02em;}.cls-175{letter-spacing:0em;}.cls-176{letter-spacing:-0.06em;}.cls-177{letter-spacing:-0.02em;}.cls-178{letter-spacing:-0.02em;}.cls-179{font-size:6.14px;letter-spacing:0.03em;}.cls-180{letter-spacing:-0.08em;}.cls-181{letter-spacing:-0.02em;}.cls-182{letter-spacing:-0.06em;}.cls-183{letter-spacing:-0.02em;}.cls-184{letter-spacing:-0.01em;}.cls-185{letter-spacing:-0.02em;}.cls-186{filter:url(#luminosity-noclip-16);}.cls-187{filter:url(#luminosity-noclip-15);}.cls-188{filter:url(#luminosity-noclip-14);}.cls-189{filter:url(#luminosity-noclip-13);}.cls-190{filter:url(#luminosity-noclip-12);}.cls-191{filter:url(#luminosity-noclip-11);}.cls-192{filter:url(#luminosity-noclip-10);}.cls-193{filter:url(#luminosity-noclip-9);}.cls-194{filter:url(#luminosity-noclip-7);}.cls-195{filter:url(#luminosity-noclip-5);}.cls-196{filter:url(#luminosity-noclip-4);}.cls-197{filter:url(#luminosity-noclip-3);}.cls-198{filter:url(#luminosity-noclip-2);}.cls-199{filter:url(#luminosity-noclip);}</style><filter id="luminosity-noclip" x="58" y="-7853.55" width="383.54" height="32766" filterUnits="userSpaceOnUse" color-interpolation-filters="sRGB"><feFlood flood-color="#fff" result="bg"/><feBlend in="SourceGraphic" in2="bg"/></filter><mask id="mask" x="58" y="-7853.55" width="383.54" height="32766" maskUnits="userSpaceOnUse"><g class="cls-199"/></mask><radialGradient id="_ÂÁ_Ï_ÌÌ_È_ËÂÌÚ_361" cx="249.77" cy="250" r="191.77" gradientUnits="userSpaceOnUse"><stop offset="0" stop-color="#fff"/><stop offset="0" stop-color="#fafafa"/><stop offset="0.04" stop-color="#afafaf"/><stop offset="0.08" stop-color="#717171"/><stop offset="0.11" stop-color="#404040"/><stop offset="0.14" stop-color="#1d1d1d"/><stop offset="0.16" stop-color="#080808"/><stop offset="0.17"/><stop offset="0.67"/><stop offset="0.75"/><stop offset="0.85" stop-color="#020202"/><stop offset="0.89" stop-color="#090909"/><stop offset="0.92" stop-color="#141414"/><stop offset="0.94" stop-color="#252525"/><stop offset="0.96" stop-color="#3b3b3b"/><stop offset="0.98" stop-color="#575757"/><stop offset="0.99" stop-color="#767676"/><stop offset="1" stop-color="#858585"/></radialGradient><filter id="luminosity-noclip-2" x="66" y="-7853.55" width="18.83" height="32766" filterUnits="userSpaceOnUse" color-interpolation-filters="sRGB"><feFlood flood-color="#fff" result="bg"/><feBlend in="SourceGraphic" in2="bg"/></filter><mask id="mask-2" x="66" y="-7853.55" width="18.83" height="32766" maskUnits="userSpaceOnUse"><g class="cls-198"/></mask><radialGradient id="_ÂÁ_Ï_ÌÌ_È_ËÂÌÚ_337" cx="-11.3" cy="-432.78" r="9.41" gradientTransform="matrix(0.71, -0.71, 0.71, 0.71, 388.85, 447.75)" gradientUnits="userSpaceOnUse"><stop offset="0.53" stop-color="#858585"/><stop offset="0.54" stop-color="#828282"/><stop offset="0.69" stop-color="#4b4b4b"/><stop offset="0.83" stop-color="#222"/><stop offset="0.94" stop-color="#090909"/><stop offset="1"/></radialGradient><filter id="luminosity-noclip-3" x="415.17" y="-7853.55" width="18.83" height="32766" filterUnits="userSpaceOnUse" color-interpolation-filters="sRGB"><feFlood flood-color="#fff" result="bg"/><feBlend in="SourceGraphic" in2="bg"/></filter><mask id="mask-3" x="415.17" y="-7853.55" width="18.83" height="32766" maskUnits="userSpaceOnUse"><g class="cls-197"/></mask><radialGradient id="_ÂÁ_Ï_ÌÌ_È_ËÂÌÚ_337-2" cx="-11.29" cy="-29.58" r="9.41" gradientTransform="translate(455.85 355.73) rotate(-60)" xlink:href="#_ÂÁ_Ï_ÌÌ_È_ËÂÌÚ_337"/><filter id="luminosity-noclip-4" x="38.99" y="-7853.55" width="18.83" height="32766" filterUnits="userSpaceOnUse" color-interpolation-filters="sRGB"><feFlood flood-color="#fff" result="bg"/><feBlend in="SourceGraphic" in2="bg"/></filter><mask id="mask-4" x="38.99" y="-7853.55" width="18.83" height="32766" maskUnits="userSpaceOnUse"><g class="cls-196"/></mask><radialGradient id="_ÂÁ_Ï_ÌÌ_È_ËÂÌÚ_337-3" cx="68.82" cy="-704.73" r="9.41" gradientTransform="translate(753.13 318.73) rotate(-90)" xlink:href="#_ÂÁ_Ï_ÌÌ_È_ËÂÌÚ_337"/><filter id="luminosity-noclip-5" x="442.18" y="-7853.55" width="18.83" height="32766" filterUnits="userSpaceOnUse" color-interpolation-filters="sRGB"><feFlood flood-color="#fff" result="bg"/><feBlend in="SourceGraphic" in2="bg"/></filter><mask id="mask-5" x="442.18" y="-7853.55" width="18.83" height="32766" maskUnits="userSpaceOnUse"><g class="cls-195"/></mask><radialGradient id="_ÂÁ_Ï_ÌÌ_È_ËÂÌÚ_337-4" cx="68.82" cy="-301.54" r="9.41" gradientTransform="translate(753.13 318.73) rotate(-90)" xlink:href="#_ÂÁ_Ï_ÌÌ_È_ËÂÌÚ_337"/><radialGradient id="_ÂÁ_Ï_ÌÌ_È_ËÂÌÚ_337-5" cx="274.44" cy="-899.71" r="9.41" gradientTransform="translate(991.78 138.53) rotate(-120)" xlink:href="#_ÂÁ_Ï_ÌÌ_È_ËÂÌÚ_337"/><filter id="luminosity-noclip-7" x="240.59" y="-7853.55" width="18.83" height="32766" filterUnits="userSpaceOnUse" color-interpolation-filters="sRGB"><feFlood flood-color="#fff" result="bg"/><feBlend in="SourceGraphic" in2="bg"/></filter><mask id="mask-7" x="240.59" y="-7853.55" width="18.83" height="32766" maskUnits="userSpaceOnUse"><g class="cls-194"/></mask><radialGradient id="_ÂÁ_Ï_ÌÌ_È_ËÂÌÚ_337-6" cx="250" cy="48.32" r="9.41" gradientTransform="translate(11.51 -40.89) rotate(9.57)" xlink:href="#_ÂÁ_Ï_ÌÌ_È_ËÂÌÚ_337"/><radialGradient id="_ÂÁ_Ï_ÌÌ_È_ËÂÌÚ_337-7" cx="274.44" cy="-496.51" r="9.41" gradientTransform="translate(991.78 138.53) rotate(-120)" xlink:href="#_ÂÁ_Ï_ÌÌ_È_ËÂÌÚ_337"/><filter id="luminosity-noclip-9" x="139.79" y="-7853.55" width="18.83" height="32766" filterUnits="userSpaceOnUse" color-interpolation-filters="sRGB"><feFlood flood-color="#fff" result="bg"/><feBlend in="SourceGraphic" in2="bg"/></filter><mask id="mask-9" x="139.79" y="-7853.55" width="18.83" height="32766" maskUnits="userSpaceOnUse"><g class="cls-193"/></mask><radialGradient id="_ÂÁ_Ï_ÌÌ_È_ËÂÌÚ_337-8" cx="550.28" cy="-966.23" r="9.41" gradientTransform="translate(1220.96 128.39) rotate(-135.11)" xlink:href="#_ÂÁ_Ï_ÌÌ_È_ËÂÌÚ_337"/><filter id="luminosity-noclip-10" x="341.38" y="-7853.55" width="18.83" height="32766" filterUnits="userSpaceOnUse" color-interpolation-filters="sRGB"><feFlood flood-color="#fff" result="bg"/><feBlend in="SourceGraphic" in2="bg"/></filter><mask id="mask-10" x="341.38" y="-7853.55" width="18.83" height="32766" maskUnits="userSpaceOnUse"><g class="cls-192"/></mask><radialGradient id="_ÂÁ_Ï_ÌÌ_È_ËÂÌÚ_337-9" cx="550.28" cy="-563.04" r="9.41" gradientTransform="translate(1137.99 64.35) rotate(-135.14)" xlink:href="#_ÂÁ_Ï_ÌÌ_È_ËÂÌÚ_337"/><filter id="luminosity-noclip-11" x="188.41" y="-7853.55" width="18.83" height="32766" filterUnits="userSpaceOnUse" color-interpolation-filters="sRGB"><feFlood flood-color="#fff" result="bg"/><feBlend in="SourceGraphic" in2="bg"/></filter><mask id="mask-11" x="188.41" y="-7853.55" width="18.83" height="32766" maskUnits="userSpaceOnUse"><g class="cls-191"/></mask><radialGradient id="_ÂÁ_Ï_ÌÌ_È_ËÂÌÚ_337-10" cx="139.18" cy="-41.44" r="9.41" gradientTransform="translate(74.12 131.23) rotate(-15)" xlink:href="#_ÂÁ_Ï_ÌÌ_È_ËÂÌÚ_337"/><filter id="luminosity-noclip-12" x="292.76" y="-7853.55" width="18.83" height="32766" filterUnits="userSpaceOnUse" color-interpolation-filters="sRGB"><feFlood flood-color="#fff" result="bg"/><feBlend in="SourceGraphic" in2="bg"/></filter><mask id="mask-12" x="292.76" y="-7853.55" width="18.83" height="32766" maskUnits="userSpaceOnUse"><g class="cls-190"/></mask><radialGradient id="_ÂÁ_Ï_ÌÌ_È_ËÂÌÚ_337-11" cx="139.18" cy="361.76" r="9.41" gradientTransform="translate(74.12 131.23) rotate(-15)" xlink:href="#_ÂÁ_Ï_ÌÌ_È_ËÂÌÚ_337"/><filter id="luminosity-noclip-13" x="98.04" y="-7853.55" width="18.83" height="32766" filterUnits="userSpaceOnUse" color-interpolation-filters="sRGB"><feFlood flood-color="#fff" result="bg"/><feBlend in="SourceGraphic" in2="bg"/></filter><mask id="mask-13" x="98.04" y="-7853.55" width="18.83" height="32766" maskUnits="userSpaceOnUse"><g class="cls-189"/></mask><radialGradient id="_ÂÁ_Ï_ÌÌ_È_ËÂÌÚ_337-12" cx="3.52" cy="-290.6" r="9.41" gradientTransform="translate(310.44 315.34) rotate(-45)" xlink:href="#_ÂÁ_Ï_ÌÌ_È_ËÂÌÚ_337"/><filter id="luminosity-noclip-14" x="383.14" y="-7853.55" width="18.83" height="32766" filterUnits="userSpaceOnUse" color-interpolation-filters="sRGB"><feFlood flood-color="#fff" result="bg"/><feBlend in="SourceGraphic" in2="bg"/></filter><mask id="mask-14" x="383.14" y="-7853.55" width="18.83" height="32766" maskUnits="userSpaceOnUse"><g class="cls-188"/></mask><radialGradient id="_ÂÁ_Ï_ÌÌ_È_ËÂÌÚ_337-13" cx="3.52" cy="112.59" r="9.41" gradientTransform="translate(310.44 315.34) rotate(-45)" xlink:href="#_ÂÁ_Ï_ÌÌ_È_ËÂÌÚ_337"/><filter id="luminosity-noclip-15" x="45.86" y="-7853.55" width="18.83" height="32766" filterUnits="userSpaceOnUse" color-interpolation-filters="sRGB"><feFlood flood-color="#fff" result="bg"/><feBlend in="SourceGraphic" in2="bg"/></filter><mask id="mask-15" x="45.86" y="-7853.55" width="18.83" height="32766" maskUnits="userSpaceOnUse"><g class="cls-187"/></mask><radialGradient id="_ÂÁ_Ï_ÌÌ_È_ËÂÌÚ_337-14" cx="10.86" cy="-573.76" r="9.41" gradientTransform="matrix(0.52, -0.85, 0.85, 0.52, 538.76, 506.83)" xlink:href="#_ÂÁ_Ï_ÌÌ_È_ËÂÌÚ_337"/><filter id="luminosity-noclip-16" x="435.31" y="-7853.55" width="18.83" height="32766" filterUnits="userSpaceOnUse" color-interpolation-filters="sRGB"><feFlood flood-color="#fff" result="bg"/><feBlend in="SourceGraphic" in2="bg"/></filter><mask id="mask-16" x="435.31" y="-7853.55" width="18.83" height="32766" maskUnits="userSpaceOnUse"><g class="cls-186"/></mask><radialGradient id="_ÂÁ_Ï_ÌÌ_È_ËÂÌÚ_337-15" cx="10.86" cy="-170.56" r="9.41" gradientTransform="translate(594.67 384.08) rotate(-64.98)" xlink:href="#_ÂÁ_Ï_ÌÌ_È_ËÂÌÚ_337"/><radialGradient id="_ÂÁ_Ï_ÌÌ_È_ËÂÌÚ_337-16" cx="159.06" cy="-815.74" r="9.41" gradientTransform="matrix(-0.15, -0.99, 0.99, -0.15, 885.7, 335.2)" xlink:href="#_ÂÁ_Ï_ÌÌ_È_ËÂÌÚ_337"/><radialGradient id="_ÂÁ_Ï_ÌÌ_È_ËÂÌÚ_337-17" cx="250" cy="451.51" r="9.41" gradientTransform="matrix(1, 0, 0, 1, 0, 0)" xlink:href="#_ÂÁ_Ï_ÌÌ_È_ËÂÌÚ_337"/><radialGradient id="_ÂÁ_Ï_ÌÌ_È_ËÂÌÚ_337-18" cx="159.07" cy="-412.54" r="9.41" gradientTransform="translate(758.27 509.47) rotate(-66.25)" xlink:href="#_ÂÁ_Ï_ÌÌ_È_ËÂÌÚ_337"/><radialGradient id="_ÂÁ_Ï_ÌÌ_È_ËÂÌÚ_337-19" cx="407.89" cy="-951.21" r="9.41" gradientTransform="translate(1068.47 8.29) rotate(-135)" xlink:href="#_ÂÁ_Ï_ÌÌ_È_ËÂÌÚ_337"/><radialGradient id="_ÂÁ_Ï_ÌÌ_È_ËÂÌÚ_337-20" cx="407.89" cy="-548.02" r="9.41" gradientTransform="translate(1068.47 8.29) rotate(-135)" xlink:href="#_ÂÁ_Ï_ÌÌ_È_ËÂÌÚ_337"/><radialGradient id="_ÂÁ_Ï_ÌÌ_È_ËÂÌÚ_337-21" cx="691.38" cy="-943.67" r="9.41" gradientTransform="translate(1109.86 -287.92) rotate(-165)" xlink:href="#_ÂÁ_Ï_ÌÌ_È_ËÂÌÚ_337"/><radialGradient id="_ÂÁ_Ï_ÌÌ_È_ËÂÌÚ_337-22" cx="691.38" cy="-540.47" r="9.41" gradientTransform="translate(1109.86 -287.92) rotate(-165)" xlink:href="#_ÂÁ_Ï_ÌÌ_È_ËÂÌÚ_337"/><radialGradient id="_ÂÁ_Ï_ÌÌ_È_ËÂÌÚ_337-23" cx="54.81" cy="-156.94" r="9.41" gradientTransform="translate(180.21 238.65) rotate(-30)" xlink:href="#_ÂÁ_Ï_ÌÌ_È_ËÂÌÚ_337"/><radialGradient id="_ÂÁ_Ï_ÌÌ_È_ËÂÌÚ_337-24" cx="54.81" cy="246.25" r="9.41" gradientTransform="matrix(0.71, 0.71, -0.71, 0.71, 486.56, 211.88)" xlink:href="#_ÂÁ_Ï_ÌÌ_È_ËÂÌÚ_337"/><filter id="luminosity-noclip-26" x="58" y="58.23" width="383.54" height="383.54" filterUnits="userSpaceOnUse" color-interpolation-filters="sRGB"><feFlood flood-color="#fff" result="bg"/><feBlend in="SourceGraphic" in2="bg"/></filter><mask id="mask-26" x="58" y="58.23" width="383.54" height="383.54" maskUnits="userSpaceOnUse"><g class="cls-1"><circle class="cls-2" cx="249.77" cy="250" r="191.77"/></g></mask><radialGradient id="_ÂÁ_Ï_ÌÌ_È_ËÂÌÚ_335" cx="249.77" cy="250" r="191.77" gradientUnits="userSpaceOnUse"><stop offset="0"/><stop offset="0.17"/><stop offset="0.67"/><stop offset="0.75"/><stop offset="0.96"/><stop offset="1"/></radialGradient><filter id="luminosity-noclip-27" x="240.59" y="38.91" width="18.83" height="18.83" filterUnits="userSpaceOnUse" color-interpolation-filters="sRGB"><feFlood flood-color="#fff" result="bg"/><feBlend in="SourceGraphic" in2="bg"/></filter><mask id="mask-27" x="240.59" y="38.91" width="18.83" height="18.83" maskUnits="userSpaceOnUse"><g class="cls-13"><circle class="cls-14" cx="250" cy="48.32" r="9.41" transform="translate(-4.55 42.23) rotate(-9.57)"/></g></mask><radialGradient id="_ÂÁ_Ï_ÌÌ_È_ËÂÌÚ_129" cx="250" cy="48.32" r="9.41" gradientTransform="translate(11.51 -40.89) rotate(9.57)" gradientUnits="userSpaceOnUse"><stop offset="0.53" stop-color="#fff"/><stop offset="1" stop-color="#fff"/></radialGradient><filter id="luminosity-noclip-28" x="240.59" y="442.1" width="18.83" height="18.83" filterUnits="userSpaceOnUse" color-interpolation-filters="sRGB"><feFlood flood-color="#fff" result="bg"/><feBlend in="SourceGraphic" in2="bg"/></filter><mask id="mask-28" x="240.59" y="442.1" width="18.83" height="18.83" maskUnits="userSpaceOnUse"><g class="cls-35"><circle class="cls-36" cx="250" cy="451.51" r="9.41"/></g></mask><radialGradient id="_ÂÁ_Ï_ÌÌ_È_ËÂÌÚ_129-2" cx="250" cy="451.51" r="9.41" gradientTransform="matrix(1, 0, 0, 1, 0, 0)" xlink:href="#_ÂÁ_Ï_ÌÌ_È_ËÂÌÚ_129"/><filter id="luminosity-noclip-29" x="139.79" y="65.92" width="18.83" height="18.83" filterUnits="userSpaceOnUse" color-interpolation-filters="sRGB"><feFlood flood-color="#fff" result="bg"/><feBlend in="SourceGraphic" in2="bg"/></filter><mask id="mask-29" x="139.79" y="65.92" width="18.83" height="18.83" maskUnits="userSpaceOnUse"><g class="cls-47"><path class="cls-48" d="M157.35,70.63a9.41,9.41,0,1,0-3.44,12.85A9.4,9.4,0,0,0,157.35,70.63Z"/></g></mask><radialGradient id="_ÂÁ_Ï_ÌÌ_È_ËÂÌÚ_129-3" cx="54.81" cy="-156.94" r="9.41" gradientTransform="translate(180.21 238.65) rotate(-30)" xlink:href="#_ÂÁ_Ï_ÌÌ_È_ËÂÌÚ_129"/><filter id="luminosity-noclip-30" x="341.38" y="415.09" width="18.83" height="18.83" filterUnits="userSpaceOnUse" color-interpolation-filters="sRGB"><feFlood flood-color="#fff" result="bg"/><feBlend in="SourceGraphic" in2="bg"/></filter><mask id="mask-30" x="341.38" y="415.09" width="18.83" height="18.83" maskUnits="userSpaceOnUse"><g class="cls-49"><circle class="cls-50" cx="350.8" cy="424.5" r="9.41" transform="translate(-149.6 654.41) rotate(-75.11)"/></g></mask><radialGradient id="_ÂÁ_Ï_ÌÌ_È_ËÂÌÚ_129-4" cx="54.81" cy="246.25" r="9.41" gradientTransform="matrix(0.71, 0.71, -0.71, 0.71, 486.56, 211.88)" xlink:href="#_ÂÁ_Ï_ÌÌ_È_ËÂÌÚ_129"/><filter id="luminosity-noclip-31" x="66" y="139.71" width="18.83" height="18.83" filterUnits="userSpaceOnUse" color-interpolation-filters="sRGB"><feFlood flood-color="#fff" result="bg"/><feBlend in="SourceGraphic" in2="bg"/></filter><mask id="mask-31" x="66" y="139.71" width="18.83" height="18.83" maskUnits="userSpaceOnUse"><g class="cls-3"><circle class="cls-4" cx="75.41" cy="149.12" r="9.41" transform="translate(-36.26 24.81) rotate(-15.11)"/></g></mask><radialGradient id="_ÂÁ_Ï_ÌÌ_È_ËÂÌÚ_129-5" cx="-11.3" cy="-432.78" r="9.41" gradientTransform="matrix(0.71, -0.71, 0.71, 0.71, 388.85, 447.75)" xlink:href="#_ÂÁ_Ï_ÌÌ_È_ËÂÌÚ_129"/><filter id="luminosity-noclip-32" x="415.17" y="341.3" width="18.83" height="18.83" filterUnits="userSpaceOnUse" color-interpolation-filters="sRGB"><feFlood flood-color="#fff" result="bg"/><feBlend in="SourceGraphic" in2="bg"/></filter><mask id="mask-32" x="415.17" y="341.3" width="18.83" height="18.83" maskUnits="userSpaceOnUse"><g class="cls-5"><path class="cls-6" d="M429.29,342.56a9.41,9.41,0,1,0,3.45,12.86A9.42,9.42,0,0,0,429.29,342.56Z"/></g></mask><radialGradient id="_ÂÁ_Ï_ÌÌ_È_ËÂÌÚ_129-6" cx="-11.29" cy="-29.58" r="9.41" gradientTransform="translate(455.85 355.73) rotate(-60)" xlink:href="#_ÂÁ_Ï_ÌÌ_È_ËÂÌÚ_129"/><filter id="luminosity-noclip-33" x="38.99" y="240.51" width="18.83" height="18.83" filterUnits="userSpaceOnUse" color-interpolation-filters="sRGB"><feFlood flood-color="#fff" result="bg"/><feBlend in="SourceGraphic" in2="bg"/></filter><mask id="mask-33" x="38.99" y="240.51" width="18.83" height="18.83" maskUnits="userSpaceOnUse"><g class="cls-7"><circle class="cls-8" cx="48.41" cy="249.92" r="9.41"/></g></mask><radialGradient id="_ÂÁ_Ï_ÌÌ_È_ËÂÌÚ_129-7" cx="68.82" cy="-704.73" r="9.41" gradientTransform="translate(753.13 318.73) rotate(-90)" xlink:href="#_ÂÁ_Ï_ÌÌ_È_ËÂÌÚ_129"/><filter id="luminosity-noclip-34" x="442.18" y="240.51" width="18.83" height="18.83" filterUnits="userSpaceOnUse" color-interpolation-filters="sRGB"><feFlood flood-color="#fff" result="bg"/><feBlend in="SourceGraphic" in2="bg"/></filter><mask id="mask-34" x="442.18" y="240.51" width="18.83" height="18.83" maskUnits="userSpaceOnUse"><g class="cls-9"><circle class="cls-10" cx="451.59" cy="249.92" r="9.41"/></g></mask><radialGradient id="_ÂÁ_Ï_ÌÌ_È_ËÂÌÚ_129-8" cx="68.82" cy="-301.54" r="9.41" gradientTransform="translate(753.13 318.73) rotate(-90)" xlink:href="#_ÂÁ_Ï_ÌÌ_È_ËÂÌÚ_129"/><filter id="luminosity-noclip-35" x="66" y="341.3" width="18.83" height="18.83" filterUnits="userSpaceOnUse" color-interpolation-filters="sRGB"><feFlood flood-color="#fff" result="bg"/><feBlend in="SourceGraphic" in2="bg"/></filter><mask id="mask-35" x="66" y="341.3" width="18.83" height="18.83" maskUnits="userSpaceOnUse"><g class="cls-11"><path class="cls-12" d="M70.71,342.56A9.41,9.41,0,1,0,83.57,346,9.42,9.42,0,0,0,70.71,342.56Z"/></g></mask><radialGradient id="_ÂÁ_Ï_ÌÌ_È_ËÂÌÚ_129-9" cx="274.44" cy="-899.71" r="9.41" gradientTransform="translate(991.78 138.53) rotate(-120)" xlink:href="#_ÂÁ_Ï_ÌÌ_È_ËÂÌÚ_129"/><filter id="luminosity-noclip-36" x="415.17" y="139.71" width="18.83" height="18.83" filterUnits="userSpaceOnUse" color-interpolation-filters="sRGB"><feFlood flood-color="#fff" result="bg"/><feBlend in="SourceGraphic" in2="bg"/></filter><mask id="mask-36" x="415.17" y="139.71" width="18.83" height="18.83" maskUnits="userSpaceOnUse"><g class="cls-15"><path class="cls-16" d="M419.88,141a9.41,9.41,0,1,0,12.86,3.44A9.42,9.42,0,0,0,419.88,141Z"/></g></mask><radialGradient id="_ÂÁ_Ï_ÌÌ_È_ËÂÌÚ_129-10" cx="274.44" cy="-496.51" r="9.41" gradientTransform="translate(991.78 138.53) rotate(-120)" xlink:href="#_ÂÁ_Ï_ÌÌ_È_ËÂÌÚ_129"/><filter id="luminosity-noclip-37" x="139.79" y="415.09" width="18.83" height="18.83" filterUnits="userSpaceOnUse" color-interpolation-filters="sRGB"><feFlood flood-color="#fff" result="bg"/><feBlend in="SourceGraphic" in2="bg"/></filter><mask id="mask-37" x="139.79" y="415.09" width="18.83" height="18.83" maskUnits="userSpaceOnUse"><g class="cls-17"><circle class="cls-18" cx="149.2" cy="424.5" r="9.41" transform="translate(-104.09 52.61) rotate(-14.89)"/></g></mask><radialGradient id="_ÂÁ_Ï_ÌÌ_È_ËÂÌÚ_129-11" cx="550.28" cy="-966.23" r="9.41" gradientTransform="translate(1220.96 128.39) rotate(-135.11)" xlink:href="#_ÂÁ_Ï_ÌÌ_È_ËÂÌÚ_129"/><filter id="luminosity-noclip-38" x="341.38" y="65.92" width="18.83" height="18.83" filterUnits="userSpaceOnUse" color-interpolation-filters="sRGB"><feFlood flood-color="#fff" result="bg"/><feBlend in="SourceGraphic" in2="bg"/></filter><mask id="mask-38" x="341.38" y="65.92" width="18.83" height="18.83" maskUnits="userSpaceOnUse"><g class="cls-19"><circle class="cls-20" cx="350.8" cy="75.33" r="9.41" transform="translate(-7.59 92.46) rotate(-14.86)"/></g></mask><radialGradient id="_ÂÁ_Ï_ÌÌ_È_ËÂÌÚ_129-12" cx="550.28" cy="-563.04" r="9.41" gradientTransform="translate(1137.99 64.35) rotate(-135.14)" xlink:href="#_ÂÁ_Ï_ÌÌ_È_ËÂÌÚ_129"/><filter id="luminosity-noclip-39" x="188.41" y="45.78" width="18.83" height="18.83" filterUnits="userSpaceOnUse" color-interpolation-filters="sRGB"><feFlood flood-color="#fff" result="bg"/><feBlend in="SourceGraphic" in2="bg"/></filter><mask id="mask-39" x="188.41" y="45.78" width="18.83" height="18.83" maskUnits="userSpaceOnUse"><g class="cls-21"><path class="cls-22" d="M206.92,52.76a9.42,9.42,0,1,0-6.66,11.53A9.43,9.43,0,0,0,206.92,52.76Z"/></g></mask><radialGradient id="_ÂÁ_Ï_ÌÌ_È_ËÂÌÚ_129-13" cx="139.18" cy="-41.44" r="9.41" gradientTransform="translate(74.12 131.23) rotate(-15)" xlink:href="#_ÂÁ_Ï_ÌÌ_È_ËÂÌÚ_129"/><filter id="luminosity-noclip-40" x="292.76" y="435.23" width="18.83" height="18.83" filterUnits="userSpaceOnUse" color-interpolation-filters="sRGB"><feFlood flood-color="#fff" result="bg"/><feBlend in="SourceGraphic" in2="bg"/></filter><mask id="mask-40" x="292.76" y="435.23" width="18.83" height="18.83" maskUnits="userSpaceOnUse"><g class="cls-23"><path class="cls-24" d="M311.27,442.21a9.42,9.42,0,1,0-6.66,11.52A9.41,9.41,0,0,0,311.27,442.21Z"/></g></mask><radialGradient id="_ÂÁ_Ï_ÌÌ_È_ËÂÌÚ_129-14" cx="139.18" cy="361.76" r="9.41" gradientTransform="translate(74.12 131.23) rotate(-15)" xlink:href="#_ÂÁ_Ï_ÌÌ_È_ËÂÌÚ_129"/><filter id="luminosity-noclip-41" x="98.04" y="97.96" width="18.83" height="18.83" filterUnits="userSpaceOnUse" color-interpolation-filters="sRGB"><feFlood flood-color="#fff" result="bg"/><feBlend in="SourceGraphic" in2="bg"/></filter><mask id="mask-41" x="98.04" y="97.96" width="18.83" height="18.83" maskUnits="userSpaceOnUse"><g class="cls-25"><circle class="cls-26" cx="107.45" cy="107.37" r="9.41"/></g></mask><radialGradient id="_ÂÁ_Ï_ÌÌ_È_ËÂÌÚ_129-15" cx="3.52" cy="-290.6" r="9.41" gradientTransform="translate(310.44 315.34) rotate(-45)" xlink:href="#_ÂÁ_Ï_ÌÌ_È_ËÂÌÚ_129"/><filter id="luminosity-noclip-42" x="383.14" y="383.05" width="18.83" height="18.83" filterUnits="userSpaceOnUse" color-interpolation-filters="sRGB"><feFlood flood-color="#fff" result="bg"/><feBlend in="SourceGraphic" in2="bg"/></filter><mask id="mask-42" x="383.14" y="383.05" width="18.83" height="18.83" maskUnits="userSpaceOnUse"><g class="cls-27"><circle class="cls-28" cx="392.55" cy="392.47" r="9.41"/></g></mask><radialGradient id="_ÂÁ_Ï_ÌÌ_È_ËÂÌÚ_129-16" cx="3.52" cy="112.59" r="9.41" gradientTransform="translate(310.44 315.34) rotate(-45)" xlink:href="#_ÂÁ_Ï_ÌÌ_È_ËÂÌÚ_129"/><filter id="luminosity-noclip-43" x="45.86" y="188.33" width="18.83" height="18.83" filterUnits="userSpaceOnUse" color-interpolation-filters="sRGB"><feFlood flood-color="#fff" result="bg"/><feBlend in="SourceGraphic" in2="bg"/></filter><mask id="mask-43" x="45.86" y="188.33" width="18.83" height="18.83" maskUnits="userSpaceOnUse"><g class="cls-29"><circle class="cls-30" cx="55.28" cy="197.74" r="9.41" transform="translate(-53.91 23.86) rotate(-16.51)"/></g></mask><radialGradient id="_ÂÁ_Ï_ÌÌ_È_ËÂÌÚ_129-17" cx="10.86" cy="-573.76" r="9.41" gradientTransform="matrix(0.52, -0.85, 0.85, 0.52, 538.76, 506.83)" xlink:href="#_ÂÁ_Ï_ÌÌ_È_ËÂÌÚ_129"/><filter id="luminosity-noclip-44" x="435.31" y="292.68" width="18.83" height="18.83" filterUnits="userSpaceOnUse" color-interpolation-filters="sRGB"><feFlood flood-color="#fff" result="bg"/><feBlend in="SourceGraphic" in2="bg"/></filter><mask id="mask-44" x="435.31" y="292.68" width="18.83" height="18.83" maskUnits="userSpaceOnUse"><g class="cls-31"><circle class="cls-32" cx="444.72" cy="302.09" r="9.41" transform="translate(-45.8 82.03) rotate(-10.03)"/></g></mask><radialGradient id="_ÂÁ_Ï_ÌÌ_È_ËÂÌÚ_129-18" cx="10.86" cy="-170.56" r="9.41" gradientTransform="translate(594.67 384.08) rotate(-64.98)" xlink:href="#_ÂÁ_Ï_ÌÌ_È_ËÂÌÚ_129"/><filter id="luminosity-noclip-45" x="45.86" y="292.68" width="18.83" height="18.83" filterUnits="userSpaceOnUse" color-interpolation-filters="sRGB"><feFlood flood-color="#fff" result="bg"/><feBlend in="SourceGraphic" in2="bg"/></filter><mask id="mask-45" x="45.86" y="292.68" width="18.83" height="18.83" maskUnits="userSpaceOnUse"><g class="cls-33"><circle class="cls-34" cx="55.28" cy="302.09" r="9.41" transform="translate(-32.55 7.81) rotate(-6.25)"/></g></mask><radialGradient id="_ÂÁ_Ï_ÌÌ_È_ËÂÌÚ_129-19" cx="159.06" cy="-815.74" r="9.41" gradientTransform="matrix(-0.15, -0.99, 0.99, -0.15, 885.7, 335.2)" xlink:href="#_ÂÁ_Ï_ÌÌ_È_ËÂÌÚ_129"/><filter id="luminosity-noclip-46" x="435.31" y="188.33" width="18.83" height="18.83" filterUnits="userSpaceOnUse" color-interpolation-filters="sRGB"><feFlood flood-color="#fff" result="bg"/><feBlend in="SourceGraphic" in2="bg"/></filter><mask id="mask-46" x="435.31" y="188.33" width="18.83" height="18.83" maskUnits="userSpaceOnUse"><g class="cls-37"><circle class="cls-38" cx="444.72" cy="197.74" r="9.41" transform="translate(-25.89 321.87) rotate(-38.75)"/></g></mask><radialGradient id="_ÂÁ_Ï_ÌÌ_È_ËÂÌÚ_129-20" cx="159.07" cy="-412.54" r="9.41" gradientTransform="translate(758.27 509.47) rotate(-66.25)" xlink:href="#_ÂÁ_Ï_ÌÌ_È_ËÂÌÚ_129"/><filter id="luminosity-noclip-47" x="98.04" y="383.05" width="18.83" height="18.83" filterUnits="userSpaceOnUse" color-interpolation-filters="sRGB"><feFlood flood-color="#fff" result="bg"/><feBlend in="SourceGraphic" in2="bg"/></filter><mask id="mask-47" x="98.04" y="383.05" width="18.83" height="18.83" maskUnits="userSpaceOnUse"><g class="cls-39"><circle class="cls-40" cx="107.45" cy="392.47" r="9.41"/></g></mask><radialGradient id="_ÂÁ_Ï_ÌÌ_È_ËÂÌÚ_129-21" cx="407.89" cy="-951.21" r="9.41" gradientTransform="translate(1068.47 8.29) rotate(-135)" xlink:href="#_ÂÁ_Ï_ÌÌ_È_ËÂÌÚ_129"/><filter id="luminosity-noclip-48" x="383.14" y="97.96" width="18.83" height="18.83" filterUnits="userSpaceOnUse" color-interpolation-filters="sRGB"><feFlood flood-color="#fff" result="bg"/><feBlend in="SourceGraphic" in2="bg"/></filter><mask id="mask-48" x="383.14" y="97.96" width="18.83" height="18.83" maskUnits="userSpaceOnUse"><g class="cls-41"><circle class="cls-42" cx="392.55" cy="107.37" r="9.41"/></g></mask><radialGradient id="_ÂÁ_Ï_ÌÌ_È_ËÂÌÚ_129-22" cx="407.89" cy="-548.02" r="9.41" gradientTransform="translate(1068.47 8.29) rotate(-135)" xlink:href="#_ÂÁ_Ï_ÌÌ_È_ËÂÌÚ_129"/><filter id="luminosity-noclip-49" x="188.41" y="435.23" width="18.83" height="18.83" filterUnits="userSpaceOnUse" color-interpolation-filters="sRGB"><feFlood flood-color="#fff" result="bg"/><feBlend in="SourceGraphic" in2="bg"/></filter><mask id="mask-49" x="188.41" y="435.23" width="18.83" height="18.83" maskUnits="userSpaceOnUse"><g class="cls-43"><path class="cls-44" d="M188.73,442.21a9.42,9.42,0,1,0,11.53-6.66A9.41,9.41,0,0,0,188.73,442.21Z"/></g></mask><radialGradient id="_ÂÁ_Ï_ÌÌ_È_ËÂÌÚ_129-23" cx="691.38" cy="-943.67" r="9.41" gradientTransform="translate(1109.86 -287.92) rotate(-165)" xlink:href="#_ÂÁ_Ï_ÌÌ_È_ËÂÌÚ_129"/><filter id="luminosity-noclip-50" x="292.76" y="45.78" width="18.83" height="18.83" filterUnits="userSpaceOnUse" color-interpolation-filters="sRGB"><feFlood flood-color="#fff" result="bg"/><feBlend in="SourceGraphic" in2="bg"/></filter><mask id="mask-50" x="292.76" y="45.78" width="18.83" height="18.83" maskUnits="userSpaceOnUse"><g class="cls-45"><path class="cls-46" d="M293.08,52.76a9.42,9.42,0,1,0,11.53-6.66A9.43,9.43,0,0,0,293.08,52.76Z"/></g></mask><radialGradient id="_ÂÁ_Ï_ÌÌ_È_ËÂÌÚ_129-24" cx="691.38" cy="-540.47" r="9.41" gradientTransform="translate(1109.86 -287.92) rotate(-165)" xlink:href="#_ÂÁ_Ï_ÌÌ_È_ËÂÌÚ_129"/></defs><circle class="cls-51" cx="250" cy="250" r="211.26"/><path class="cls-52" d="M441.77,250a190.9,190.9,0,0,0-25.67-95.9L250,250Z"/><path class="cls-53" d="M250,250l166.1-95.9a192.74,192.74,0,0,0-70.2-70.2L250,250Z"/><path class="cls-54" d="M250,250h0l166.1,95.9A190.9,190.9,0,0,0,441.77,250Z"/><path class="cls-55" d="M250,250h0V441.77a190.9,190.9,0,0,0,95.9-25.67L250,250Z"/><path class="cls-56" d="M154.1,416.1A190.9,190.9,0,0,0,250,441.77V250Z"/><path class="cls-53" d="M250,250,83.9,345.9a192.74,192.74,0,0,0,70.2,70.2L250,250Z"/><path class="cls-57" d="M345.9,416.1a192.74,192.74,0,0,0,70.2-70.2L250,250Z"/><path class="cls-55" d="M250,58.23A190.9,190.9,0,0,0,154.1,83.9L250,250Z"/><path class="cls-57" d="M250,250h0L154.1,83.9a192.74,192.74,0,0,0-70.2,70.2L250,250Z"/><path class="cls-56" d="M250,250,345.9,83.9A190.9,190.9,0,0,0,250,58.23V250Z"/><path class="cls-54" d="M83.9,154.1A190.9,190.9,0,0,0,58.23,250H250Z"/><path class="cls-52" d="M250,250H58.23A190.9,190.9,0,0,0,83.9,345.9L250,250Z"/><g class="cls-58"><circle class="cls-59" cx="249.77" cy="250" r="191.77"/></g><path class="cls-54" d="M254.84,48.32A4.84,4.84,0,1,0,250,53.17,4.84,4.84,0,0,0,254.84,48.32Z"/><g class="cls-60"><circle class="cls-61" cx="250" cy="48.32" r="9.41" transform="translate(-4.55 42.23) rotate(-9.57)"/></g><circle class="cls-54" cx="250" cy="451.51" r="4.84"/><g class="cls-62"><circle class="cls-63" cx="250" cy="451.51" r="9.41"/></g><path class="cls-54" d="M153.4,72.91a4.84,4.84,0,1,0-1.78,6.62A4.84,4.84,0,0,0,153.4,72.91Z"/><g class="cls-64"><path class="cls-65" d="M157.35,70.63a9.41,9.41,0,1,0-3.44,12.85A9.4,9.4,0,0,0,157.35,70.63Z"/></g><path class="cls-54" d="M355,422.08a4.84,4.84,0,1,0-1.77,6.62A4.83,4.83,0,0,0,355,422.08Z"/><g class="cls-66"><circle class="cls-67" cx="350.8" cy="424.5" r="9.41" transform="translate(-149.6 654.41) rotate(-75.11)"/></g><path class="cls-54" d="M77.84,144.93a4.85,4.85,0,1,0,1.77,6.61A4.84,4.84,0,0,0,77.84,144.93Z"/><g class="cls-68"><circle class="cls-69" cx="75.41" cy="149.12" r="9.41" transform="translate(-36.26 24.81) rotate(-15.11)"/></g><path class="cls-54" d="M427,346.52a4.85,4.85,0,1,0,1.77,6.62A4.85,4.85,0,0,0,427,346.52Z"/><g class="cls-70"><path class="cls-71" d="M429.29,342.56a9.41,9.41,0,1,0,3.45,12.86A9.42,9.42,0,0,0,429.29,342.56Z"/></g><circle class="cls-54" cx="48.41" cy="249.92" r="4.84"/><g class="cls-72"><circle class="cls-73" cx="48.41" cy="249.92" r="9.41"/></g><circle class="cls-54" cx="451.59" cy="249.92" r="4.84"/><g class="cls-74"><circle class="cls-75" cx="451.59" cy="249.92" r="9.41"/></g><path class="cls-54" d="M73,346.52a4.85,4.85,0,1,0,6.62,1.77A4.85,4.85,0,0,0,73,346.52Z"/><g class="cls-76"><path class="cls-77" d="M70.71,342.56A9.41,9.41,0,1,0,83.57,346,9.42,9.42,0,0,0,70.71,342.56Z"/></g><path class="cls-54" d="M422.16,144.93a4.85,4.85,0,1,0,6.62,1.77A4.84,4.84,0,0,0,422.16,144.93Z"/><g class="cls-78"><path class="cls-79" d="M419.88,141a9.41,9.41,0,1,0,12.86,3.44A9.42,9.42,0,0,0,419.88,141Z"/></g><path class="cls-54" d="M145,422.08a4.84,4.84,0,1,0,6.61-1.77A4.85,4.85,0,0,0,145,422.08Z"/><g class="cls-80"><circle class="cls-81" cx="149.2" cy="424.5" r="9.41" transform="translate(-104.09 52.61) rotate(-14.89)"/></g><path class="cls-54" d="M346.6,72.91a4.84,4.84,0,1,0,6.62-1.77A4.85,4.85,0,0,0,346.6,72.91Z"/><g class="cls-82"><circle class="cls-83" cx="350.8" cy="75.33" r="9.41" transform="translate(-7.59 92.46) rotate(-14.86)"/></g><path class="cls-54" d="M202.5,53.94a4.84,4.84,0,1,0-3.42,5.93A4.84,4.84,0,0,0,202.5,53.94Z"/><g class="cls-84"><path class="cls-85" d="M206.92,52.76a9.42,9.42,0,1,0-6.66,11.53A9.43,9.43,0,0,0,206.92,52.76Z"/></g><path class="cls-54" d="M306.85,443.39a4.84,4.84,0,1,0-3.42,5.93A4.85,4.85,0,0,0,306.85,443.39Z"/><g class="cls-86"><path class="cls-87" d="M311.27,442.21a9.42,9.42,0,1,0-6.66,11.52A9.41,9.41,0,0,0,311.27,442.21Z"/></g><path class="cls-54" d="M110.88,103.94a4.84,4.84,0,1,0,0,6.85A4.85,4.85,0,0,0,110.88,103.94Z"/><g class="cls-88"><circle class="cls-89" cx="107.45" cy="107.37" r="9.41"/></g><path class="cls-54" d="M396,389a4.84,4.84,0,1,0,0,6.85A4.85,4.85,0,0,0,396,389Z"/><g class="cls-90"><circle class="cls-91" cx="392.55" cy="392.47" r="9.41"/></g><path class="cls-54" d="M56.53,193.06A4.85,4.85,0,1,0,60,199,4.84,4.84,0,0,0,56.53,193.06Z"/><g class="cls-92"><circle class="cls-93" cx="55.28" cy="197.74" r="9.41" transform="translate(-53.91 23.86) rotate(-16.51)"/></g><path class="cls-54" d="M446,297.42a4.84,4.84,0,1,0,3.42,5.93A4.83,4.83,0,0,0,446,297.42Z"/><g class="cls-94"><circle class="cls-95" cx="444.72" cy="302.09" r="9.41" transform="translate(-45.8 82.03) rotate(-10.03)"/></g><path class="cls-54" d="M54,297.42A4.84,4.84,0,1,0,60,300.84,4.83,4.83,0,0,0,54,297.42Z"/><g class="cls-96"><circle class="cls-97" cx="55.28" cy="302.09" r="9.41" transform="translate(-32.55 7.81) rotate(-6.25)"/></g><path class="cls-54" d="M443.47,193.06a4.85,4.85,0,1,0,5.93,3.43A4.85,4.85,0,0,0,443.47,193.06Z"/><g class="cls-98"><circle class="cls-99" cx="444.72" cy="197.74" r="9.41" transform="translate(-25.89 321.87) rotate(-38.75)"/></g><path class="cls-54" d="M104,389a4.84,4.84,0,1,0,6.85,0A4.85,4.85,0,0,0,104,389Z"/><g class="cls-100"><circle class="cls-101" cx="107.45" cy="392.47" r="9.41"/></g><path class="cls-54" d="M389.12,103.94a4.84,4.84,0,1,0,6.85,0A4.85,4.85,0,0,0,389.12,103.94Z"/><g class="cls-102"><circle class="cls-103" cx="392.55" cy="107.37" r="9.41"/></g><path class="cls-54" d="M193.15,443.39a4.84,4.84,0,1,0,5.93-3.43A4.84,4.84,0,0,0,193.15,443.39Z"/><g class="cls-104"><path class="cls-105" d="M188.73,442.21a9.42,9.42,0,1,0,11.53-6.66A9.41,9.41,0,0,0,188.73,442.21Z"/></g><path class="cls-54" d="M297.5,53.94a4.84,4.84,0,1,0,5.93-3.42A4.84,4.84,0,0,0,297.5,53.94Z"/><g class="cls-106"><path class="cls-107" d="M293.08,52.76a9.42,9.42,0,1,0,11.53-6.66A9.43,9.43,0,0,0,293.08,52.76Z"/></g><circle class="cls-51" cx="250" cy="250" r="19.19"/><circle class="cls-108" cx="250" cy="250" r="10.02"/><ellipse class="cls-109" cx="251.97" cy="248.75" rx="54.84" ry="56.2"/><ellipse cx="251.74" cy="248.98" rx="51.12" ry="52.72"/><path class="cls-110" d="M220.42,243.14H210.18a1.52,1.52,0,0,0,0,3h10.24a1.52,1.52,0,1,0,0-3Z"/><path class="cls-110" d="M218.05,247.49H207.81a1.52,1.52,0,1,0,0,3h10.24a1.52,1.52,0,1,0,0-3Z"/><path class="cls-110" d="M215.77,251.84H205.52a1.52,1.52,0,0,0,0,3h10.25a1.52,1.52,0,0,0,0-3Z"/><path class="cls-54" d="M227.79,243.19H231l2.7,11.21h-3.62l-.44-2H225l-1.31,2h-3.55Zm1.44,6.82-.65-3.17L226.5,250Z"/><path class="cls-54" d="M234.68,249.52l1.39-6.26h3.43l-1.37,6.19c-.36,1.61.36,2.37,1.71,2.37a2.67,2.67,0,0,0,2.76-2.29l1.39-6.27h3.42L246,249.44c-.79,3.59-3.39,5.17-6.85,5.17S233.91,253,234.68,249.52Z"/><path class="cls-54" d="M248.72,243.26h5.75c1.87,0,3,.45,3.7,1.21a2.8,2.8,0,0,1,.51,2.6v0a4.75,4.75,0,0,1-3.26,3.42l2,3.88h-3.9l-1.7-3.37h-1.48l-.75,3.37h-3.37Zm4.41,5.35c1.15,0,1.92-.51,2.1-1.32v0c.2-.88-.4-1.32-1.53-1.32H251.5l-.59,2.67Z"/><path class="cls-54" d="M260.53,243.26h9.79l-.58,2.63h-6.45l-.38,1.69h5.85l-.54,2.43h-5.85l-.39,1.76h6.54l-.58,2.63h-9.88Z"/><path class="cls-54" d="M271.43,243.26H275l1.95,4.32,3.86-4.32h3.57l-2.47,11.14h-3.36L280,248l-4.08,4.36h-.07L273.68,248l-1.41,6.36H269Z"/><path class="cls-54" d="M284.18,248.86v0c.7-3.2,4.1-5.79,7.86-5.79s6,2.56,5.26,5.76v0c-.71,3.2-4.1,5.79-7.86,5.79S283.47,252.06,284.18,248.86Zm9.67,0v0a2.36,2.36,0,0,0-2.47-3,3.89,3.89,0,0,0-3.74,3v0a2.35,2.35,0,0,0,2.44,3A3.9,3.9,0,0,0,293.85,248.86Z"/><text class="cls-111" transform="translate(197.61 290.92) rotate(127.88) scale(1.02 1)">40%</text><text class="cls-112" transform="translate(193.24 287.52) rotate(127.88) scale(1.02 1)">DESCUEN<tspan class="cls-113" x="30.01" y="0">T</tspan><tspan class="cls-114" x="33.75" y="0">O</tspan></text><path class="cls-115" d="M175.64,338.05a2.65,2.65,0,0,0-1.15.85c-.49.63-.45,1.24,0,1.61s.88.28,1.61-.17,1.64-.74,2.29-.23a1.71,1.71,0,0,1,.07,2.51,2.68,2.68,0,0,1-1,.87l-.36-.55a2.35,2.35,0,0,0,.92-.73c.5-.64.32-1.18,0-1.43s-.87-.21-1.63.25c-.92.56-1.62.67-2.3.14s-.92-1.58,0-2.69a3.07,3.07,0,0,1,1.24-1Z"/><path class="cls-115" d="M172.54,345l1.42-1.84-1.67-1.3-1.59,2.05-.5-.39,2.06-2.66,4.65,3.61-2,2.55-.5-.39,1.51-1.94-1.47-1.14L173,345.41Z"/><path class="cls-115" d="M173,348.41l1.11-1.43.51.39-2.72,3.5-.51-.39,1.13-1.45-4.14-3.21.48-.62Z"/><path class="cls-115" d="M170.53,352.56a10.43,10.43,0,0,1-.91,1.37,3.45,3.45,0,0,1-2.07,1.46,2.64,2.64,0,0,1-2.18-.63,3.07,3.07,0,0,1-1.28-2.08,3.71,3.71,0,0,1,1-2.61c.34-.44.64-.78.91-1.07ZM166,350a5.57,5.57,0,0,0-.51.59,2.29,2.29,0,0,0,.4,3.55,2.12,2.12,0,0,0,3.28-.52,5,5,0,0,0,.5-.77Z"/><path class="cls-115" d="M162.7,357.66l1.43-1.83-1.68-1.3-1.59,2-.5-.39,2.07-2.65,4.64,3.61-2,2.55-.5-.39,1.51-1.94-1.47-1.15-1.42,1.84Z"/><path class="cls-115" d="M163.45,361.79l-.48.61-4.14-3.22-1.57,2-.5-.39,2-2.63Z"/><path class="cls-115" d="M160.7,365.32,158,363.18c-1-.81-1.84-.68-2.33-.05s-.44,1.5.58,2.3l2.75,2.14-.48.62-2.71-2.11c-1.42-1.11-1.41-2.33-.62-3.35s1.87-1.27,3.31-.15l2.73,2.12Z"/><path class="cls-115" d="M150.7,368.92a3.75,3.75,0,0,1,.75-1.42,2.77,2.77,0,0,1,4.16-.51,3,3,0,0,1,.52,4.37,3.4,3.4,0,0,1-1.08,1l-.37-.53a2.79,2.79,0,0,0,.93-.81,2.2,2.2,0,0,0-.48-3.33,2.16,2.16,0,0,0-3.28.36,3.11,3.11,0,0,0-.58,1.15Z"/><path class="cls-115" d="M150.33,373.56l1.43-1.83-1.67-1.3-1.6,2-.5-.39,2.07-2.66L154.7,373l-2,2.55-.51-.39,1.51-1.95-1.46-1.14L150.83,374Z"/><path class="cls-115" d="M148.28,373.22a2.68,2.68,0,0,0-1.16.86c-.48.62-.44,1.24,0,1.6s.88.28,1.61-.17,1.64-.73,2.29-.23a1.71,1.71,0,0,1,.07,2.51,2.75,2.75,0,0,1-1,.87l-.36-.55a2.39,2.39,0,0,0,.92-.72c.5-.65.32-1.19,0-1.44s-.87-.21-1.63.25c-.92.56-1.62.67-2.3.14s-.92-1.58-.05-2.69a3.21,3.21,0,0,1,1.23-1Z"/><path class="cls-115" d="M172.61,335.83a11.14,11.14,0,0,1-.91,1.37,3.49,3.49,0,0,1-2.07,1.46,2.68,2.68,0,0,1-2.18-.63,3.07,3.07,0,0,1-1.28-2.08,3.71,3.71,0,0,1,1-2.61,11.28,11.28,0,0,1,.91-1.07ZM168,333.24a4.09,4.09,0,0,0-.51.59,2.29,2.29,0,0,0,.4,3.55,2.12,2.12,0,0,0,3.28-.52,4.33,4.33,0,0,0,.5-.77Z"/><path class="cls-115" d="M164.78,340.93l1.43-1.83-1.68-1.31-1.59,2-.5-.39,2.07-2.66,4.64,3.61-2,2.56-.5-.39,1.51-1.95-1.47-1.14-1.42,1.84Z"/><path class="cls-115" d="M166.57,343.72l-.47.61L162,341.1l-1.57,2-.5-.39,2-2.63Z"/><path class="cls-115" d="M160.33,345.17l-1.08-1.62.49-.63,3.4,5.21-.58.74-5.89-2,.5-.65,1.86.63Zm-.74,1.92,1.7.57c.39.13.72.28,1,.42v0c-.22-.28-.44-.58-.66-.89l-1-1.51Z"/><path class="cls-115" d="M156.23,347.43l4.65,3.61-.52.66-3.53-.31a17.29,17.29,0,0,1-2.17-.32h0c.66.43,1.24.86,2,1.42l1.95,1.51-.45.57L153.48,351l.48-.61,3.52.33a18.86,18.86,0,0,1,2.24.32v0c-.62-.42-1.19-.84-2-1.44l-2-1.54Z"/><path class="cls-115" d="M156.19,356l1.12-1.43.51.39-2.72,3.5-.51-.4,1.12-1.44-4.13-3.22.48-.61Z"/><path class="cls-115" d="M150.43,359.38l1.42-1.83-1.67-1.3-1.59,2-.51-.39,2.07-2.65,4.65,3.61-2,2.55-.5-.39,1.51-1.94-1.47-1.15-1.43,1.84Z"/><path class="cls-115" d="M152.16,362.12a8,8,0,0,1-.82,1.24,2.44,2.44,0,0,1-1.44,1.08,1.45,1.45,0,0,1-1.17-.32,1.55,1.55,0,0,1-.49-1.81l0,0a1.48,1.48,0,0,1-1.48,0,9.13,9.13,0,0,0-1.56-.63l.49-.63a7.75,7.75,0,0,1,1.36.55c.75.36,1.19.29,1.64-.24l.44-.58-2-1.56.48-.61Zm-2.59-1-.49.63a1.17,1.17,0,0,0,.06,1.75c.59.47,1.2.23,1.71-.41a3.31,3.31,0,0,0,.41-.65Z"/><path class="cls-115" d="M145.59,364.12l-1.08-1.62.49-.63,3.4,5.21-.58.74-5.89-2,.5-.65,1.86.63Zm-.74,1.92,1.7.57c.38.13.71.28,1,.42v0c-.22-.28-.45-.58-.66-.89l-1-1.51Z"/><path class="cls-115" d="M142.29,366.86a2.77,2.77,0,0,0-1.16.86c-.48.62-.44,1.24,0,1.6s.88.28,1.61-.17,1.64-.73,2.29-.22a1.7,1.7,0,0,1,.07,2.5,2.68,2.68,0,0,1-1,.87l-.36-.55a2.3,2.3,0,0,0,.92-.72c.5-.65.32-1.19,0-1.43s-.87-.22-1.63.24c-.92.56-1.62.67-2.3.14s-.91-1.58-.05-2.69a3.16,3.16,0,0,1,1.24-1Z"/><path class="cls-115" d="M165.86,330.57l-.47.62L161.25,328l-1.57,2-.51-.39,2.05-2.63Z"/><path class="cls-115" d="M159,334.27l1.42-1.83-1.67-1.31-1.59,2.05-.5-.39,2.06-2.66,4.65,3.61-2,2.56-.5-.4,1.51-1.94L161,332.82l-1.43,1.84Z"/><path class="cls-115" d="M160.76,337a12.93,12.93,0,0,1-.91,1.37,3.48,3.48,0,0,1-2.07,1.46,2.66,2.66,0,0,1-2.19-.63,3.05,3.05,0,0,1-1.27-2.08,3.74,3.74,0,0,1,1-2.61c.34-.44.65-.78.92-1.07Zm-4.58-2.59a6.94,6.94,0,0,0-.52.59,2.29,2.29,0,0,0,.41,3.55,2.12,2.12,0,0,0,3.28-.52,4.78,4.78,0,0,0,.49-.77Z"/><text class="cls-116" transform="translate(262.79 316.04) rotate(77.54) scale(1.02 1)">30%</text><text class="cls-117" transform="translate(257.49 317.21) rotate(77.54) scale(1.02 1)">DESCUEN<tspan class="cls-118" x="29.41" y="0">T</tspan><tspan x="33.07" y="0">O</tspan></text><path class="cls-54" d="M284.6,362.09a2.68,2.68,0,0,0-.08,1.4c.17.76.66,1.12,1.23,1s.76-.49.88-1.32c.11-1,.46-1.7,1.26-1.87a1.67,1.67,0,0,1,1.93,1.52,2.76,2.76,0,0,1,0,1.32l-.64-.07a2.42,2.42,0,0,0,0-1.15c-.18-.78-.7-1-1.09-.89s-.7.52-.83,1.38c-.15,1.05-.5,1.64-1.33,1.83s-1.76-.3-2.06-1.65a3,3,0,0,1,0-1.55Z"/><path class="cls-54" d="M287.91,368.79l-.49-2.23-2,.45.55,2.48-.61.14-.71-3.23,5.63-1.24.68,3.1-.61.14L289.8,366l-1.78.39.5,2.23Z"/><path class="cls-54" d="M290.79,370.54l-.39-1.75.62-.13.94,4.24-.62.14-.39-1.75-5,1.1-.16-.75Z"/><path class="cls-54" d="M292.34,375a10.3,10.3,0,0,1,.47,1.55,3.4,3.4,0,0,1-.19,2.47,2.62,2.62,0,0,1-1.84,1.26,3,3,0,0,1-2.37-.35A3.69,3.69,0,0,1,287,377.6c-.11-.53-.19-1-.23-1.36Zm-4.8,1.84a4.38,4.38,0,0,0,.12.75,2.24,2.24,0,0,0,2.92,1.92,2.08,2.08,0,0,0,1.66-2.8,3.82,3.82,0,0,0-.27-.86Z"/><path class="cls-54" d="M291.3,384.12l-.49-2.23-2,.45.55,2.48-.61.14-.71-3.23,5.62-1.24.69,3.1-.61.13-.52-2.35-1.78.39.49,2.23Z"/><path class="cls-54" d="M294.88,386.14l.16.74-5,1.1.54,2.46-.61.13-.7-3.19Z"/><path class="cls-54" d="M295.83,390.41l-3.33.74c-1.26.28-1.67,1-1.5,1.73s.86,1.27,2.1,1l3.33-.73.16.74-3.27.73c-1.73.38-2.65-.39-2.92-1.63s.2-2.21,2-2.59l3.31-.73Z"/><path class="cls-54" d="M292.28,400.21a3.92,3.92,0,0,1-.6-1.45,2.72,2.72,0,0,1,2.22-3.46,2.89,2.89,0,0,1,3.62,2.34,3.14,3.14,0,0,1,.05,1.42l-.63-.05a2.78,2.78,0,0,0,0-1.21,2.16,2.16,0,0,0-2.81-1.73,2.11,2.11,0,0,0-1.77,2.71,3,3,0,0,0,.5,1.15Z"/><path class="cls-54" d="M295.56,403.4l-.49-2.23-2,.44.55,2.49-.61.13-.71-3.22,5.62-1.24.69,3.09L298,403l-.52-2.36-1.78.39.49,2.23Z"/><path class="cls-54" d="M294,404.72a2.73,2.73,0,0,0-.08,1.41c.17.76.66,1.12,1.23,1s.76-.49.88-1.33c.11-1,.46-1.69,1.26-1.86a1.67,1.67,0,0,1,1.93,1.51,2.8,2.8,0,0,1,0,1.33l-.64-.07a2.42,2.42,0,0,0,0-1.15c-.18-.78-.7-1-1.09-.89s-.7.52-.83,1.38c-.15,1-.5,1.64-1.33,1.82s-1.76-.29-2.06-1.65a3,3,0,0,1,0-1.54Z"/><path class="cls-54" d="M281,363a10.67,10.67,0,0,1,.47,1.55,3.42,3.42,0,0,1-.19,2.48,2.63,2.63,0,0,1-1.84,1.25,3,3,0,0,1-2.37-.34,3.69,3.69,0,0,1-1.37-2.35c-.11-.53-.19-1-.23-1.36Zm-4.81,1.84a4.47,4.47,0,0,0,.13.76,2.23,2.23,0,0,0,2.92,1.91,2.07,2.07,0,0,0,1.66-2.8,3.88,3.88,0,0,0-.27-.85Z"/><path class="cls-54" d="M280,372.09l-.49-2.23-2,.45.55,2.48-.61.14-.71-3.23,5.62-1.24.69,3.1-.61.13-.52-2.36-1.78.4.49,2.23Z"/><path class="cls-54" d="M283.2,372.47l.16.74-5,1.11.54,2.45-.61.13-.71-3.19Z"/><path class="cls-54" d="M280.4,378.09l-1.9-.2-.17-.77,6.05.71.2.89-5.19,3.2-.18-.79,1.64-1Zm1,1.76,1.5-.92c.33-.21.65-.37,1-.53h0c-.35,0-.71,0-1.08-.07l-1.75-.2Z"/><path class="cls-54" d="M279.54,382.59l5.62-1.24.18.81-2.44,2.46a17.88,17.88,0,0,1-1.6,1.44h0c.74-.23,1.42-.4,2.29-.59L286,385l.15.7-5.62,1.25-.17-.75,2.45-2.46a19.92,19.92,0,0,1,1.64-1.48v0c-.7.2-1.37.37-2.31.58l-2.4.53Z"/><path class="cls-54" d="M286,388l-.38-1.75.61-.13.94,4.24-.62.14-.38-1.75-5,1.1-.16-.75Z"/><path class="cls-54" d="M284.92,394.46l-.49-2.23-2,.45.55,2.48-.61.13-.71-3.22,5.62-1.24.69,3.09-.61.14-.52-2.36-1.78.39.49,2.23Z"/><path class="cls-54" d="M288.07,394.86a9.25,9.25,0,0,1,.43,1.39,2.44,2.44,0,0,1-.1,1.76,1.4,1.4,0,0,1-1,.69,1.53,1.53,0,0,1-1.68-.76h0a1.43,1.43,0,0,1-.95,1.09,9.69,9.69,0,0,0-1.45.79l-.17-.77a7.88,7.88,0,0,1,1.26-.68c.74-.34,1-.71.84-1.39l-.15-.7-2.44.54-.16-.74Zm-2.4,1.3.17.76c.17.79.71,1.2,1.35,1.06s.92-.77.76-1.55a3.16,3.16,0,0,0-.23-.72Z"/><path class="cls-54" d="M285.47,401.07l-1.9-.21-.17-.76,6.06.7.2.89-5.2,3.2-.17-.79,1.63-1Zm1,1.75,1.49-.92a10.32,10.32,0,0,1,1-.52v0l-1.08-.06-1.76-.21Z"/><path class="cls-54" d="M285.47,405.27a2.8,2.8,0,0,0-.07,1.4c.17.76.66,1.12,1.22,1s.76-.49.88-1.33c.12-1,.47-1.69,1.26-1.86A1.68,1.68,0,0,1,290.7,406a2.61,2.61,0,0,1,0,1.32l-.63-.07a2.32,2.32,0,0,0,0-1.15c-.17-.78-.69-1-1.08-.89s-.7.52-.83,1.38c-.15,1.05-.5,1.64-1.33,1.83s-1.76-.3-2.06-1.65a3.17,3.17,0,0,1,0-1.55Z"/><path class="cls-54" d="M272.84,364.79l.16.74-5,1.11.54,2.45-.61.13-.7-3.19Z"/><path class="cls-54" d="M271.36,372.26l-.49-2.23-2,.45.55,2.49-.61.13-.72-3.22,5.63-1.25.68,3.1-.61.14-.52-2.36-1.77.39.49,2.23Z"/><path class="cls-54" d="M274.5,372.66a10.67,10.67,0,0,1,.47,1.55,3.42,3.42,0,0,1-.19,2.48,2.63,2.63,0,0,1-1.84,1.25,3,3,0,0,1-2.37-.34,3.61,3.61,0,0,1-1.37-2.35,11.69,11.69,0,0,1-.23-1.36Zm-4.81,1.84a5.54,5.54,0,0,0,.12.76,2.25,2.25,0,0,0,2.93,1.92,2.09,2.09,0,0,0,1.66-2.81,4.51,4.51,0,0,0-.27-.85Z"/><text class="cls-119" transform="translate(309.18 274.44) rotate(14.93) scale(1.02 1)">20%</text><text class="cls-120" transform="translate(307.7 280.01) rotate(14.93) scale(1.02 1)">DESCUEN<tspan class="cls-121" x="31.24" y="0">T</tspan><tspan class="cls-122" x="35.13" y="0">O</tspan></text><path d="M363.27,276.38a3,3,0,0,0,1.29.76c.79.21,1.37-.08,1.52-.68s-.09-.95-.82-1.48c-.89-.6-1.36-1.26-1.14-2.09a1.79,1.79,0,0,1,2.38-1.09,2.87,2.87,0,0,1,1.25.64l-.38.57a2.52,2.52,0,0,0-1.07-.59c-.82-.22-1.26.18-1.37.59s.15.92.89,1.46c.92.65,1.31,1.28,1.08,2.14s-1.15,1.52-2.57,1.14a3.22,3.22,0,0,1-1.43-.78Z"/><path d="M371.21,276.52l-2.34-.62L368.3,278l2.61.7-.17.64-3.39-.91,1.58-5.91,3.25.87-.17.64-2.48-.66-.49,1.87,2.34.62Z"/><path d="M374.26,274.67l-1.83-.49.17-.65,4.46,1.19-.17.65-1.84-.49-1.41,5.26-.78-.21Z"/><path d="M379.25,275.39a10.2,10.2,0,0,1,1.68.32,3.6,3.6,0,0,1,2.25,1.38,2.85,2.85,0,0,1,.28,2.35,3.19,3.19,0,0,1-1.48,2.07,3.91,3.91,0,0,1-2.89.14,13.51,13.51,0,0,1-1.39-.45Zm-.62,5.43a4.71,4.71,0,0,0,.78.26,2.38,2.38,0,0,0,3.23-1.83,2.21,2.21,0,0,0-1.83-2.93,4.34,4.34,0,0,0-.94-.16Z"/><path d="M387.32,280.82,385,280.2l-.57,2.13L387,283l-.17.64-3.39-.9,1.58-5.91,3.25.87-.17.64-2.47-.66-.5,1.86,2.34.63Z"/><path d="M391,278.43l.77.21-1.4,5.27,2.57.69-.17.64-3.35-.9Z"/><path d="M395.47,279.63l-.93,3.5c-.36,1.32.09,2.05.9,2.26s1.62-.19,2-1.5l.94-3.5.78.21-.92,3.45c-.48,1.82-1.65,2.3-3,2s-2-1.27-1.49-3.11l.93-3.48Z"/><path d="M403,287.76a4.11,4.11,0,0,1-1.67-.15,2.88,2.88,0,0,1-2.17-3.78,3.08,3.08,0,0,1,4-2.27,3.4,3.4,0,0,1,1.36.65l-.35.57a3.08,3.08,0,0,0-1.15-.57,2.29,2.29,0,0,0-3,1.81,2.24,2.24,0,0,0,1.67,3,3.34,3.34,0,0,0,1.34.09Z"/><path d="M407.58,286.22l-2.34-.62-.57,2.13,2.61.7-.17.64-3.39-.91,1.58-5.91,3.25.87-.17.64-2.47-.66-.5,1.87,2.34.62Z"/><path d="M408.08,288.33a3.07,3.07,0,0,0,1.29.76c.8.21,1.37-.08,1.53-.67s-.09-1-.82-1.48c-.89-.61-1.36-1.27-1.14-2.1a1.78,1.78,0,0,1,2.37-1.09,3,3,0,0,1,1.26.65l-.38.56a2.49,2.49,0,0,0-1.07-.58c-.82-.22-1.27.18-1.37.58-.15.55.14.92.89,1.46.92.66,1.31,1.28,1.07,2.15s-1.14,1.51-2.56,1.13a3.22,3.22,0,0,1-1.43-.78Z"/><path d="M362.37,280.18a13.15,13.15,0,0,1,1.68.32,3.63,3.63,0,0,1,2.24,1.39,2.8,2.8,0,0,1,.29,2.35,3.28,3.28,0,0,1-1.48,2.07,3.91,3.91,0,0,1-2.89.14,13.77,13.77,0,0,1-1.4-.45Zm-.62,5.44a5,5,0,0,0,.77.25,2.37,2.37,0,0,0,3.24-1.82,2.21,2.21,0,0,0-1.83-2.93A4.6,4.6,0,0,0,363,281Z"/><path d="M370.44,285.62,368.1,285l-.57,2.13,2.61.7-.17.64-3.39-.9,1.58-5.91,3.25.86-.17.64-2.47-.66-.5,1.87,2.34.63Z"/><path d="M372.38,282.77l.77.21-1.4,5.27,2.57.69-.17.64-3.35-.9Z"/><path d="M376.31,288.16l-1.12,1.69-.81-.21,3.63-5.37.93.25.48,6.46-.83-.22-.14-2Zm2.13-.07-.13-1.86c0-.42,0-.8,0-1.16h0c-.18.33-.37.66-.58,1l-1.05,1.56Z"/><path d="M380.13,291.17l1.58-5.91.85.22,1.13,3.51a18.55,18.55,0,0,1,.57,2.21h0c.14-.81.31-1.54.56-2.46l.66-2.47.73.19-1.58,5.92-.78-.21-1.12-3.51a22.07,22.07,0,0,1-.6-2.28h0c-.16.76-.33,1.48-.59,2.46l-.68,2.53Z"/><path d="M388.38,287.73l-1.83-.49.17-.64,4.46,1.18-.17.65-1.84-.49-1.41,5.27L387,293Z"/><path d="M394,291.89l-2.34-.63-.57,2.13,2.61.7-.17.64-3.38-.9,1.57-5.91,3.25.86-.17.64-2.47-.66-.5,1.87,2.34.63Z"/><path d="M395.87,289.12a9.07,9.07,0,0,1,1.52.27,2.64,2.64,0,0,1,1.62.95,1.53,1.53,0,0,1,.17,1.25,1.62,1.62,0,0,1-1.54,1.21v0a1.55,1.55,0,0,1,.56,1.43,9.14,9.14,0,0,0,0,1.75l-.81-.22a7.94,7.94,0,0,1,0-1.51c0-.87-.2-1.26-.9-1.48l-.74-.19-.68,2.56-.78-.21Zm.06,2.9.79.21c.83.22,1.48-.08,1.66-.76s-.27-1.25-1.09-1.47a3.5,3.5,0,0,0-.79-.14Z"/><path d="M400.46,294.6l-1.12,1.69-.81-.21,3.62-5.37.94.25.48,6.46-.83-.22-.15-2Zm2.13-.07-.14-1.86c0-.42,0-.8,0-1.16h0c-.18.33-.38.66-.59,1l-1,1.56Z"/><path d="M404.42,296.65a2.86,2.86,0,0,0,1.29.76c.79.21,1.37-.08,1.53-.67s-.09-1-.82-1.48c-.89-.61-1.37-1.27-1.15-2.1a1.79,1.79,0,0,1,2.38-1.09,2.91,2.91,0,0,1,1.25.65l-.38.56a2.53,2.53,0,0,0-1.07-.58c-.82-.22-1.26.18-1.37.58-.14.55.15.92.9,1.46.91.66,1.3,1.28,1.07,2.15s-1.14,1.52-2.56,1.14a3.33,3.33,0,0,1-1.44-.79Z"/><path d="M360.07,288.79l.78.2-1.41,5.28L362,295l-.18.64-3.35-.89Z"/><path d="M366.39,293.84l-2.34-.63-.57,2.13,2.61.7-.17.64-3.39-.9,1.58-5.92,3.25.87-.17.64-2.47-.66-.5,1.87,2.34.62Z"/><path d="M368.31,291.07a10.2,10.2,0,0,1,1.68.32,3.6,3.6,0,0,1,2.25,1.38,2.85,2.85,0,0,1,.28,2.35,3.19,3.19,0,0,1-1.48,2.07,3.91,3.91,0,0,1-2.89.14,13.51,13.51,0,0,1-1.39-.45Zm-.62,5.43a4.71,4.71,0,0,0,.78.26,2.38,2.38,0,0,0,3.23-1.83,2.21,2.21,0,0,0-1.83-2.93,4.47,4.47,0,0,0-.93-.16Z"/><text class="cls-123" transform="translate(237.77 187.34) rotate(-99.47) scale(1.02 1)">20%</text><text class="cls-124" transform="translate(242.85 186.5) rotate(-99.47) scale(1.02 1)">DESCUEN<tspan class="cls-125" x="27.91" y="0">T</tspan><tspan x="31.38" y="0">O</tspan></text><path class="cls-54" d="M219.39,142.63a2.7,2.7,0,0,0,.14-1.33c-.13-.73-.57-1.09-1.12-1s-.74.43-.89,1.21c-.17,1-.53,1.59-1.29,1.71s-1.58-.46-1.76-1.53a2.68,2.68,0,0,1,.06-1.26l.6.1a2.35,2.35,0,0,0-.08,1.08c.13.76.62,1,1,.91s.7-.46.86-1.27c.2-1,.56-1.53,1.35-1.67s1.65.37,1.87,1.67a3,3,0,0,1-.11,1.46Z"/><path class="cls-54" d="M216.57,136.11l.36,2.14,1.94-.33-.39-2.38.58-.1.51,3.09-5.38.9-.5-3,.59-.09.37,2.26,1.7-.29L216,136.2Z"/><path class="cls-54" d="M213.94,134.31l.28,1.67-.59.1L213,132l.59-.1.28,1.68,4.8-.8.12.72Z"/><path class="cls-54" d="M212.69,130a10.8,10.8,0,0,1-.37-1.49,3.24,3.24,0,0,1,.3-2.34,2.53,2.53,0,0,1,1.81-1.1,2.87,2.87,0,0,1,2.22.45,3.43,3.43,0,0,1,1.18,2.3,10.61,10.61,0,0,1,.16,1.3Zm4.64-1.5a4.47,4.47,0,0,0-.08-.73,2.12,2.12,0,0,0-2.67-2,2,2,0,0,0-1.71,2.58,4.3,4.3,0,0,0,.21.82Z"/><path class="cls-54" d="M214.12,121.41l.36,2.14,1.94-.32-.4-2.38.59-.1.51,3.09-5.38.9-.5-3,.59-.1.37,2.26,1.7-.28-.35-2.14Z"/><path class="cls-54" d="M210.83,119.33l-.11-.71,4.8-.8-.39-2.35.58-.1.51,3.06Z"/><path class="cls-54" d="M210.15,115.23l3.19-.53c1.21-.21,1.63-.84,1.5-1.57s-.75-1.25-1.94-1l-3.19.53-.11-.72,3.14-.52c1.65-.28,2.48.5,2.68,1.69s-.31,2.08-2,2.36l-3.17.52Z"/><path class="cls-54" d="M214,106.12a3.8,3.8,0,0,1,.5,1.41,2.58,2.58,0,0,1-2.28,3.16,2.74,2.74,0,0,1-3.31-2.39,3,3,0,0,1,0-1.35l.59.08a2.79,2.79,0,0,0,0,1.14,2.05,2.05,0,0,0,2.58,1.78,2,2,0,0,0,1.82-2.47,3,3,0,0,0-.42-1.13Z"/><path class="cls-54" d="M211,102.94l.36,2.14,1.94-.33-.4-2.38.59-.1.51,3.09-5.38.9-.5-3,.58-.09.38,2.26,1.7-.29-.35-2.14Z"/><path class="cls-54" d="M212.57,101.76a2.63,2.63,0,0,0,.14-1.34c-.12-.72-.57-1.08-1.11-1s-.74.42-.9,1.21c-.16,1-.52,1.58-1.28,1.71s-1.58-.47-1.76-1.53a2.44,2.44,0,0,1,.06-1.26l.6.1a2.09,2.09,0,0,0-.08,1.08c.12.75.61,1,1,.9s.69-.46.85-1.26c.2-1,.56-1.54,1.35-1.67s1.66.37,1.87,1.67a2.83,2.83,0,0,1-.11,1.46Z"/><path class="cls-54" d="M222.82,142a9.32,9.32,0,0,1-.36-1.49,3.2,3.2,0,0,1,.3-2.33,2.43,2.43,0,0,1,1.8-1.1,2.85,2.85,0,0,1,2.23.44,3.48,3.48,0,0,1,1.18,2.3c.08.51.13.94.15,1.3Zm4.64-1.5a3.49,3.49,0,0,0-.08-.72,2.11,2.11,0,0,0-2.67-2,2,2,0,0,0-1.71,2.57,4.11,4.11,0,0,0,.21.82Z"/><path class="cls-54" d="M224.26,133.38l.35,2.14,1.94-.33-.39-2.38.58-.1.52,3.09-5.39.9-.5-3,.59-.09.37,2.26,1.71-.29-.36-2.14Z"/><path class="cls-54" d="M221.23,132.86l-.12-.71,4.8-.8-.39-2.35.58-.1.51,3.06Z"/><path class="cls-54" d="M224.16,127.67,226,128l.12.73-5.7-1-.14-.86,5.07-2.77.13.76-1.6.87Zm-.85-1.71-1.46.79c-.33.18-.63.32-.93.45v0c.33,0,.68.06,1,.11l1.65.28Z"/><path class="cls-54" d="M225.2,123.45l-5.39.9-.13-.78,2.43-2.21a13.72,13.72,0,0,1,1.59-1.28v0a22.38,22.38,0,0,1-2.2.45l-2.26.38-.11-.67,5.39-.9.12.72-2.44,2.2a19,19,0,0,1-1.63,1.33v0c.67-.15,1.32-.28,2.21-.43l2.3-.38Z"/><path class="cls-54" d="M219.36,118l.28,1.68-.59.1-.68-4.07.59-.1.28,1.68,4.8-.8.11.71Z"/><path class="cls-54" d="M220.68,111.94l.36,2.13,1.94-.32-.4-2.38.59-.1.51,3.09-5.39.9-.49-3,.58-.1.38,2.26,1.7-.28L220.1,112Z"/><path class="cls-54" d="M217.72,111.4a7.72,7.72,0,0,1-.33-1.34,2.3,2.3,0,0,1,.17-1.67,1.37,1.37,0,0,1,.95-.6,1.44,1.44,0,0,1,1.55.81h0a1.38,1.38,0,0,1,.95-1,7.86,7.86,0,0,0,1.41-.67l.12.74a7.48,7.48,0,0,1-1.22.58c-.72.29-1,.63-.86,1.27l.11.67,2.33-.38.12.7Zm2.34-1.12-.12-.72c-.13-.76-.62-1.18-1.23-1.07s-.91.68-.8,1.43a3.32,3.32,0,0,0,.18.69Z"/><path class="cls-54" d="M220.49,105.65l1.79.28.12.74-5.7-1-.14-.86,5.07-2.77.13.76-1.6.86Zm-.85-1.72-1.46.8c-.33.18-.64.32-.93.45h0l1,.12,1.65.28Z"/><path class="cls-54" d="M220.69,101.67a2.63,2.63,0,0,0,.14-1.34c-.12-.72-.57-1.08-1.11-1s-.74.42-.9,1.21c-.16,1-.52,1.58-1.28,1.71s-1.58-.47-1.76-1.53a2.73,2.73,0,0,1,.06-1.27l.6.11a2.34,2.34,0,0,0-.08,1.08c.12.75.61,1,1,.9s.69-.46.86-1.26c.19-1,.55-1.54,1.34-1.67s1.66.37,1.88,1.67a3.07,3.07,0,0,1-.11,1.46Z"/><path class="cls-54" d="M230.66,140.65l-.11-.71,4.8-.8-.39-2.35.58-.1.51,3.06Z"/><path class="cls-54" d="M232.44,133.64l.35,2.14,1.94-.33-.39-2.38.58-.1.52,3.1-5.39.89-.5-3,.59-.09.38,2.26,1.7-.29-.36-2.13Z"/><path class="cls-54" d="M229.48,133.1a9.32,9.32,0,0,1-.36-1.49,3.2,3.2,0,0,1,.3-2.33,2.43,2.43,0,0,1,1.8-1.1,2.85,2.85,0,0,1,2.23.44,3.48,3.48,0,0,1,1.18,2.3c.08.51.13.94.15,1.3Zm4.64-1.5a4.41,4.41,0,0,0-.07-.73,2.12,2.12,0,0,0-2.68-2,2,2,0,0,0-1.71,2.57,4.11,4.11,0,0,0,.21.82Z"/><text class="cls-126" transform="translate(302.09 211.74) rotate(-51.81) scale(1.02 1)">2</text><text class="cls-127" transform="translate(307.5 200.56) rotate(-51.81) scale(1.02 1)">X</text><text class="cls-126" transform="translate(314.24 196.29) rotate(-51.81) scale(1.02 1)">1</text><path class="cls-54" d="M314.93,177.84l-1.41,1.79,1.63,1.28,1.58-2,.49.39-2,2.6-4.53-3.57,2-2.49.49.39-1.49,1.89,1.43,1.13,1.41-1.79Z"/><path class="cls-54" d="M317.72,178.66l-4.53-3.56.51-.65,3.46.33a16.43,16.43,0,0,1,2.12.32v0c-.64-.42-1.21-.84-1.91-1.39l-1.9-1.49.45-.56,4.52,3.56-.47.6-3.45-.34a16,16,0,0,1-2.19-.33v0c.6.41,1.15.83,1.9,1.42l1.94,1.52Z"/><path class="cls-54" d="M321.41,172.5a2.77,2.77,0,0,0,1.14-.83c.48-.61.44-1.22,0-1.57s-.86-.28-1.58.16-1.6.71-2.24.21a1.68,1.68,0,0,1-.06-2.46,2.67,2.67,0,0,1,1-.85l.34.54a2.39,2.39,0,0,0-.9.71c-.5.63-.31,1.16,0,1.4s.86.22,1.6-.23c.91-.55,1.59-.65,2.26-.13s.88,1.55,0,2.64a3.11,3.11,0,0,1-1.22.95Z"/><path class="cls-54" d="M324.49,165.68l-1.41,1.8,1.63,1.28,1.58-2,.49.39-2,2.59-4.52-3.56,2-2.49.49.39L321.17,166l1.43,1.13,1.41-1.8Z"/><path class="cls-54" d="M324,162.36l-1.1,1.4-.5-.39,2.69-3.42.5.39-1.11,1.41,4,3.17-.48.61Z"/><path class="cls-54" d="M326.5,158.31a10.47,10.47,0,0,1,.9-1.34,3.42,3.42,0,0,1,2-1.43,2.64,2.64,0,0,1,2.13.63,3,3,0,0,1,1.24,2.05,3.69,3.69,0,0,1-.95,2.55,12,12,0,0,1-.91,1Zm4.47,2.55a6.56,6.56,0,0,0,.51-.57,2.24,2.24,0,0,0-.38-3.48,2.08,2.08,0,0,0-3.22.5,4.19,4.19,0,0,0-.48.74Z"/><path class="cls-54" d="M334.2,153.34l-1.41,1.8,1.63,1.28,1.57-2,.49.39-2,2.59-4.52-3.56,2-2.49.49.38-1.5,1.9,1.44,1.12,1.41-1.79Z"/><path class="cls-54" d="M333.49,149.29l.47-.59,4,3.17,1.55-2,.49.39-2,2.57Z"/><path class="cls-54" d="M336.2,145.85l2.68,2.11c1,.8,1.81.68,2.29.06s.44-1.47-.56-2.26l-2.68-2.11.47-.6,2.64,2.08c1.39,1.09,1.38,2.28.59,3.28s-1.83,1.24-3.24.14l-2.66-2.1Z"/><path class="cls-54" d="M346,142.37a3.7,3.7,0,0,1-.74,1.39,2.71,2.71,0,0,1-4.08.48,2.9,2.9,0,0,1-.49-4.28,3.25,3.25,0,0,1,1.07-.94l.36.52a2.85,2.85,0,0,0-.92.78,2.16,2.16,0,0,0,.45,3.27,2.11,2.11,0,0,0,3.22-.34,3.05,3.05,0,0,0,.57-1.12Z"/><path class="cls-54" d="M346.41,137.82,345,139.61l1.63,1.29,1.57-2,.49.38-2,2.6-4.53-3.56,2-2.49.49.38-1.49,1.9,1.43,1.12,1.41-1.79Z"/><path class="cls-54" d="M348.42,138.17a2.69,2.69,0,0,0,1.13-.83,1.06,1.06,0,0,0,0-1.58c-.43-.33-.86-.27-1.59.16s-1.6.72-2.24.21a1.68,1.68,0,0,1,0-2.46,2.68,2.68,0,0,1,1-.84l.35.54a2.22,2.22,0,0,0-.9.71c-.5.63-.32,1.16,0,1.4s.85.21,1.59-.23c.91-.55,1.6-.66,2.26-.13s.89,1.55,0,2.64a3.15,3.15,0,0,1-1.21,1Z"/><path class="cls-54" d="M317.36,183.61a11.22,11.22,0,0,1,.9-1.34,3.43,3.43,0,0,1,2-1.42,2.63,2.63,0,0,1,2.13.62,3,3,0,0,1,1.24,2.05,3.71,3.71,0,0,1-.95,2.56c-.34.42-.64.76-.91,1Zm4.47,2.56a4.54,4.54,0,0,0,.51-.58,2.24,2.24,0,0,0-.38-3.48,2.07,2.07,0,0,0-3.21.5,3.83,3.83,0,0,0-.49.75Z"/><path class="cls-54" d="M325.06,178.64l-1.41,1.8,1.63,1.28,1.58-2,.49.39-2.05,2.59-4.52-3.56,2-2.49.49.39-1.49,1.89,1.43,1.13,1.41-1.8Z"/><path class="cls-54" d="M323.32,175.91l.47-.59,4,3.17,1.56-2,.49.38-2,2.57Z"/><path class="cls-54" d="M329.44,174.51l1.05,1.6-.48.62-3.3-5.13.57-.72,5.76,2-.5.64-1.81-.63Zm.74-1.87-1.66-.57c-.38-.13-.7-.28-1-.41h0c.22.28.43.57.64.88l.95,1.48Z"/><path class="cls-54" d="M333.47,172.33l-4.53-3.57.51-.65,3.46.33a16.43,16.43,0,0,1,2.12.32h0c-.64-.43-1.21-.84-1.91-1.4l-1.89-1.49.44-.56,4.52,3.56-.47.6-3.45-.34a17.72,17.72,0,0,1-2.19-.32v0c.6.42,1.15.83,1.91,1.42l1.93,1.52Z"/><path class="cls-54" d="M333.56,163.91l-1.1,1.41-.5-.4,2.69-3.41.5.39L334,163.31l4,3.17-.48.6Z"/><path class="cls-54" d="M339.23,160.63l-1.41,1.8,1.63,1.28,1.57-2,.49.39-2,2.59L335,161.13l2-2.49.49.38-1.5,1.9,1.43,1.13,1.42-1.8Z"/><path class="cls-54" d="M337.55,158a7.65,7.65,0,0,1,.8-1.22,2.38,2.38,0,0,1,1.42-1,1.39,1.39,0,0,1,1.15.31,1.51,1.51,0,0,1,.47,1.78h0a1.45,1.45,0,0,1,1.45,0,8.53,8.53,0,0,0,1.52.62l-.49.62a7.48,7.48,0,0,1-1.32-.54c-.73-.36-1.16-.29-1.61.23l-.44.56,2,1.54-.47.6Zm2.53,1,.48-.61a1.15,1.15,0,0,0,0-1.71c-.59-.46-1.18-.23-1.68.39a2.9,2.9,0,0,0-.41.63Z"/><path class="cls-54" d="M344,156l1.05,1.6-.48.62-3.3-5.13.57-.72,5.76,2-.5.63-1.81-.62Zm.74-1.87-1.66-.57c-.38-.13-.7-.27-1-.41h0c.22.28.43.57.64.88l.95,1.48Z"/><path class="cls-54" d="M347.24,153.35a2.74,2.74,0,0,0,1.14-.84c.48-.61.44-1.21,0-1.57s-.85-.28-1.58.16-1.6.71-2.24.21a1.68,1.68,0,0,1-.06-2.46,2.69,2.69,0,0,1,1-.84l.35.54a2.35,2.35,0,0,0-.91.7,1,1,0,0,0,0,1.41c.42.33.85.21,1.59-.23.91-.55,1.59-.66,2.26-.14s.89,1.56,0,2.65a3.11,3.11,0,0,1-1.22.95Z"/><path class="cls-54" d="M347.07,145.71l.47-.59,4,3.17,1.55-2,.49.39-2,2.57Z"/><path class="cls-54" d="M353.79,142.12l-1.41,1.79L354,145.2l1.57-2,.49.38-2,2.6-4.52-3.56,2-2.49.49.38-1.5,1.9,1.44,1.12,1.41-1.79Z"/><path class="cls-54" d="M352.11,139.44a10.47,10.47,0,0,1,.9-1.34,3.38,3.38,0,0,1,2-1.43,2.6,2.6,0,0,1,2.13.63,3,3,0,0,1,1.24,2,3.71,3.71,0,0,1-.95,2.55c-.34.42-.64.76-.91,1Zm4.47,2.55a4.62,4.62,0,0,0,.51-.58,2.23,2.23,0,0,0-.38-3.47,2.07,2.07,0,0,0-3.21.49,3.83,3.83,0,0,0-.49.75Z"/><path class="cls-54" d="M261.14,179.9l2.28,1.28-.2,1L256,178.09l.23-1.23,8.26-1.23-.2,1.09-2.6.38Zm-.29-2.74-2.38.36c-.54.08-1,.11-1.49.14v0c.43.21.88.42,1.32.66l2.1,1.2Z"/><path class="cls-54" d="M256.9,173.24l.19-1,6.91,1.31.64-3.38.84.16-.83,4.39Z"/><path class="cls-54" d="M258.09,166.93l7.75,1.46-.19,1-7.75-1.47Z"/><path class="cls-54" d="M266.14,166.85l-7.75-1.47.21-1.11,4.4-1.79a24,24,0,0,1,2.78-.94v0c-1.06-.11-2-.26-3.21-.49l-3.25-.61.19-1,7.75,1.46-.2,1-4.41,1.76a24.36,24.36,0,0,1-2.86,1v0c1,.12,1.93.28,3.22.52l3.31.63Z"/><path class="cls-54" d="M264.69,154.6l-.58,3.07,2.79.53.65-3.42.84.16-.84,4.44-7.75-1.47.81-4.26.83.16-.61,3.24,2.45.46.58-3.07Z"/><path class="cls-54" d="M266.4,152.11l2.28,1.28-.2,1.05-7.24-4.14.23-1.23,8.26-1.23-.21,1.09-2.59.38Zm-.29-2.74-2.38.36c-.54.08-1,.11-1.49.14v0c.44.21.89.42,1.33.66l2.1,1.2Z"/><path class="cls-54" d="M267.75,139.67c-1.09-.15-2.4-.32-3.37-.52v0c.85.44,1.76.95,2.75,1.55l3.5,2.1-.15.77-3.93.58c-1.16.17-2.22.3-3.19.35v0c1,.21,2.25.51,3.4.8l3.28.84-.18,1-7.65-2,.25-1.3,4-.64c1-.15,1.92-.26,2.76-.3v0c-.75-.35-1.54-.79-2.46-1.32l-3.48-2.12.25-1.3,7.84,1-.19,1Z"/><path class="cls-54" d="M264.08,135.3l7.75,1.46-.2,1-7.75-1.47Z"/><path class="cls-54" d="M269.26,130.44l-.58,3.07,2.79.53.65-3.42.84.16-.84,4.44-7.75-1.47.81-4.26.83.16-.61,3.24,2.45.46.58-3.07Z"/><path class="cls-54" d="M273.17,129.69l-7.75-1.47.21-1.11,4.39-1.79a24.13,24.13,0,0,1,2.79-.94v0c-1.06-.11-2-.26-3.21-.49l-3.25-.61.19-1,7.75,1.46-.2,1-4.41,1.76a24.36,24.36,0,0,1-2.86,1v0c1,.12,1.93.28,3.22.52l3.31.63Z"/><path class="cls-54" d="M268,119.41l-.45,2.4-.85-.16,1.1-5.84.85.16-.45,2.41,6.9,1.31-.2,1Z"/><path class="cls-54" d="M272.9,109.45c2.66.51,3.77,2.43,3.39,4.44s-2.26,3.25-4.61,2.8-3.77-2.32-3.38-4.43S270.6,109,272.9,109.45Zm-1,6.15c1.66.31,3.32-.32,3.62-1.92s-1-2.81-2.74-3.14c-1.54-.29-3.31.22-3.63,1.92S270.16,115.28,271.86,115.6Z"/><path class="cls-54" d="M264.74,181.9a16.16,16.16,0,0,1,.25-2.19,4.68,4.68,0,0,1,1.57-3,3.61,3.61,0,0,1,3-.58,4.12,4.12,0,0,1,2.79,1.7,5,5,0,0,1,.46,3.7c-.14.73-.29,1.33-.44,1.84Zm7.05.28a6.61,6.61,0,0,0,.25-1c.41-2.18-.56-3.59-2.65-4-1.83-.36-3.19.48-3.6,2.63a5.68,5.68,0,0,0-.12,1.21Z"/><path class="cls-54" d="M271,171l-.58,3.07,2.79.53.65-3.42.84.16-.84,4.43-7.75-1.46.81-4.26.84.16-.62,3.24,2.45.46.58-3.07Z"/><path class="cls-54" d="M267.54,166.54l.19-1,6.91,1.31.64-3.37.84.16-.83,4.39Z"/><path class="cls-54" d="M268.66,160.65l4.58.87c1.74.33,2.62-.32,2.82-1.37s-.39-2.06-2.11-2.39l-4.58-.87.19-1,4.52.86c2.38.45,3.12,1.91,2.79,3.62s-1.44,2.66-3.84,2.21l-4.57-.87Z"/><path class="cls-54" d="M278.39,150.23a5.14,5.14,0,0,1,0,2.16,3.72,3.72,0,0,1-4.66,3.15,4,4,0,0,1-3.29-4.89,4.35,4.35,0,0,1,.7-1.81l.77.4a3.88,3.88,0,0,0-.63,1.54,3,3,0,0,0,2.62,3.68,2.89,2.89,0,0,0,3.69-2.44,4.34,4.34,0,0,0,0-1.73Z"/><path class="cls-54" d="M276,144.46l-.58,3.07,2.8.53.64-3.42.84.16-.84,4.44-7.75-1.47.81-4.26.84.16-.62,3.24,2.45.46.58-3.06Z"/><path class="cls-54" d="M278.64,143.62a3.75,3.75,0,0,0,.85-1.73c.2-1-.22-1.76-1-1.9s-1.21.2-1.82,1.19c-.69,1.21-1.5,1.88-2.59,1.67s-1.91-1.41-1.62-2.95a3.65,3.65,0,0,1,.71-1.67l.76.43a3.41,3.41,0,0,0-.65,1.43c-.2,1.08.35,1.61.88,1.71.73.14,1.17-.28,1.79-1.29.76-1.24,1.52-1.8,2.66-1.58s2.06,1.32,1.71,3.18a4.13,4.13,0,0,1-.88,1.93Z"/><text class="cls-128" transform="matrix(0.19, -1, 0.98, 0.19, 280.76, 185.61)">(<tspan class="cls-129" x="2.46" y="0">V</tspan><tspan class="cls-130" x="6.23" y="0">A</tspan><tspan class="cls-131" x="10.86" y="0">L</tspan><tspan class="cls-132" x="14.1" y="0">O</tspan><tspan class="cls-133" x="19.34" y="0">R</tspan><tspan class="cls-130" x="23.43" y="0">ADO EN L.500) </tspan></text><text class="cls-134" transform="matrix(-0.72, -0.72, 0.71, -0.71, 196.58, 201.99)">S<tspan class="cls-135" x="6.29" y="0">E</tspan><tspan x="12.8" y="0">T LED </tspan><tspan x="0" y="10.94">INTERIOR</tspan></text><text class="cls-136" transform="matrix(-0.72, -0.72, 0.71, -0.71, 211.06, 188.38)">(<tspan class="cls-137" x="2.67" y="0">V</tspan><tspan class="cls-138" x="6.76" y="0">A</tspan><tspan class="cls-139" x="11.8" y="0">L</tspan><tspan class="cls-138" x="15.31" y="0">O</tspan><tspan class="cls-140" x="21" y="0">R</tspan><tspan class="cls-138" x="25.45" y="0">ADO EN L.500) </tspan></text><text class="cls-141" transform="matrix(0.77, 0.67, -0.66, 0.75, 315.98, 302.97)">1 S<tspan class="cls-142" x="12.07" y="0">E</tspan><tspan x="17.16" y="0">T DE </tspan><tspan class="cls-143" x="37.8" y="0">L</tspan><tspan x="42.14" y="0">UCES </tspan><tspan class="cls-144"><tspan x="0" y="10.32">DELANTE</tspan><tspan class="cls-145" x="39.09" y="10.32">R</tspan><tspan class="cls-146" x="44.55" y="10.32">AS </tspan></tspan><tspan x="0" y="20.64">LED SERIE K1</tspan></text><text class="cls-147" transform="matrix(0.77, 0.67, -0.66, 0.75, 296.21, 325.08)">(<tspan class="cls-148" x="2.1" y="0">V</tspan><tspan class="cls-149" x="5.33" y="0">A</tspan><tspan class="cls-150" x="9.3" y="0">L</tspan><tspan class="cls-149" x="12.06" y="0">O</tspan><tspan class="cls-151" x="16.55" y="0">R</tspan><tspan class="cls-149" x="20.05" y="0">ADO EN L.1,000) </tspan></text><text class="cls-152" transform="translate(236.96 333.94) rotate(103.64) scale(1.02 1)">1 S<tspan class="cls-153" x="12.76" y="0">E</tspan><tspan x="18.13" y="0">T DE </tspan><tspan class="cls-154" x="39.94" y="0">L</tspan><tspan x="44.52" y="0">UCES </tspan><tspan x="0" y="10.9">DELANTE</tspan><tspan class="cls-155" x="41.3" y="10.9">R</tspan><tspan class="cls-156" x="47.07" y="10.9">AS </tspan><tspan x="0" y="21.81">LED SERIE S3</tspan></text><text class="cls-157" transform="translate(207.44 327.44) rotate(103.64) scale(1.02 1)">(<tspan class="cls-158" x="2.23" y="0">V</tspan><tspan class="cls-159" x="5.63" y="0">A</tspan><tspan class="cls-160" x="9.83" y="0">L</tspan><tspan class="cls-159" x="12.76" y="0">O</tspan><tspan class="cls-161" x="17.5" y="0">R</tspan><tspan class="cls-162" x="21.21" y="0">ADO EN L.1,700) </tspan></text><text class="cls-163" transform="translate(337.87 225.08) rotate(-15.61) scale(1.02 1)">¡VUE<tspan class="cls-164" x="24.23" y="0">L</tspan><tspan x="29.38" y="0">VE A </tspan><tspan class="cls-165"><tspan x="-3.57" y="12.98">P</tspan><tspan class="cls-166" x="2.05" y="12.98">A</tspan><tspan class="cls-167" x="9.81" y="12.98">R</tspan><tspan class="cls-166" x="16.73" y="12.98">TICI</tspan><tspan x="36.07" y="12.98">P</tspan><tspan class="cls-168" x="41.69" y="12.98">AR!</tspan></tspan></text><text class="cls-169" transform="translate(155.71 227.21) rotate(-167.08) scale(1.02 1)">¡VUE<tspan class="cls-170" x="24.23" y="0">L</tspan><tspan x="29.38" y="0">VE A </tspan><tspan class="cls-171"><tspan x="-3.57" y="12.98">P</tspan><tspan class="cls-172" x="2.05" y="12.98">A</tspan><tspan class="cls-173" x="9.81" y="12.98">R</tspan><tspan class="cls-172" x="16.72" y="12.98">TICI</tspan><tspan x="36.07" y="12.98">P</tspan><tspan class="cls-172" x="41.69" y="12.98">AR!</tspan></tspan></text><text class="cls-174" transform="translate(163.08 282.07) rotate(158.4) scale(1.02 1)">1 S<tspan class="cls-175" x="11.51" y="0">E</tspan><tspan x="16.36" y="0">T DE </tspan><tspan class="cls-176" x="36.03" y="0">L</tspan><tspan class="cls-177" x="40.17" y="0">UCES </tspan><tspan class="cls-177"><tspan x="0" y="9.84">DELANTE</tspan><tspan class="cls-178" x="37.27" y="9.84">R</tspan><tspan x="42.46" y="9.84">AS </tspan></tspan><tspan x="0" y="19.68">LED SERIE GT6</tspan></text><text class="cls-179" transform="translate(152.04 255.28) rotate(158.4) scale(1.02 1)">(<tspan class="cls-180" x="1.93" y="0">V</tspan><tspan class="cls-181" x="4.88" y="0">A</tspan><tspan class="cls-182" x="8.51" y="0">L</tspan><tspan class="cls-183" x="11.04" y="0">O</tspan><tspan class="cls-184" x="15.15" y="0">R</tspan><tspan class="cls-185" x="18.36" y="0">ADO EN L.2,400) </tspan></text></svg>